<?xml version="1.0" encoding="UTF-8" standalone="no"?>
<!DOCTYPE svg PUBLIC "-//W3C//DTD SVG 1.1//EN" "http://www.w3.org/Graphics/SVG/1.1/DTD/svg11.dtd">
<svg width="100%" height="100%" viewBox="0 0 201 275" version="1.1" xmlns="http://www.w3.org/2000/svg" xmlns:xlink="http://www.w3.org/1999/xlink" xml:space="preserve" xmlns:serif="http://www.serif.com/" style="fill-rule:evenodd;clip-rule:evenodd;stroke-linejoin:round;stroke-miterlimit:2;">
    <g transform="matrix(1,0,0,1,67.0649,233.352)">
        <path d="M0,-210.439C8.809,-218.072 19.784,-222.86 31.393,-223.898C41.759,-224.825 54.929,-223.998 67.62,-217.536C94.493,-203.851 114.567,-177.225 105.416,-153.374C96.266,-129.524 86.401,-127.824 86.401,-127.824C86.401,-127.824 105.713,-114.436 100.939,-96.606C100.939,-96.606 116.964,-91.187 122.972,-74.66C128.98,-58.133 124.306,-43.468 117.538,-36.699C117.538,-36.699 145.214,-11.778 120.901,1.304C96.588,14.386 78.7,-19.778 78.7,-19.778C78.7,-19.778 33.495,-10.159 1.507,-16.986L0.639,-17.522C0.639,-17.522 -2.038,3.267 -40.231,-8.497C-78.425,-20.262 -62.793,-40.567 -44.744,-38.311C-44.744,-38.311 -44.583,-69.985 -22.182,-73.486L-18.314,-91.653C-18.314,-91.653 -27.905,-113.336 -11.104,-129.568C-11.104,-129.568 -30.321,-143.169 -27.895,-168.765C-26.371,-184.845 -11.125,-200.8 0,-210.439" style="fill:white;fill-rule:nonzero;"/>
    </g>
    <g transform="matrix(1,0,0,1,151.422,241.488)">
        <path d="M0,6.545C-19.633,7.233 -29.185,-6.164 -32.7,-22.715C-35.217,-22.463 -37.736,-22.237 -40.26,-22.078C-42.674,-21.927 -45.063,-21.953 -47.48,-21.959C-49.046,-21.964 -50.641,-21.933 -52.189,-21.667C-52.078,-20.89 -51.966,-20.114 -51.838,-19.338C-47.233,9.501 -28.466,28.932 0.255,29.26C14.746,28.629 14.462,6.895 0,6.545" style="fill:rgb(248,189,33);fill-rule:nonzero;"/>
    </g>
    <g transform="matrix(1,0,0,1,151.734,214.733)">
        <path d="M0,59.592L-0.097,59.591C-29.352,59.257 -50.65,39.481 -55.68,7.982C-55.992,6.031 -54.664,4.198 -52.713,3.887C-50.758,3.571 -48.931,4.904 -48.62,6.853C-44.114,35.065 -25.987,52.099 -0.121,52.439C5.258,52.16 7.132,48.06 7.098,44.618C7.062,40.877 4.758,37.047 -0.303,36.877C-26.439,37.742 -31.592,16.616 -34.344,5.263L-34.46,4.786C-34.926,2.867 -33.748,0.933 -31.829,0.467C-29.913,0 -27.977,1.179 -27.511,3.098L-27.394,3.578C-24.647,14.916 -20.91,30.449 -0.436,29.727L-0.331,29.723L-0.225,29.726C9.185,29.954 14.179,37.355 14.248,44.549C14.318,51.713 9.479,59.179 0.099,59.587L0,59.592Z" style="fill:rgb(47,73,157);fill-rule:nonzero;"/>
    </g>
    <g transform="matrix(1,0,0,1,128.381,256.365)">
        <path d="M0,-20.387C0.231,-20.467 0.344,-20.967 0.214,-21.149L0.358,-21.057C1.819,-20.1 3.028,-18.816 3.946,-17.312C6.243,-13.844 6.498,-8.509 3.854,-4.94C1.839,-1.758 -3.86,1.813 -6.135,-2.933C-7.381,-5.788 -4.645,-7.998 -3.046,-9.877C-1.607,-11.49 -1.131,-13.347 -1.009,-15.764C-0.943,-17.16 -1.046,-18.719 -1.133,-20.154C-1.127,-20.393 -1.293,-20.564 -1.257,-20.861C-1.119,-22.2 0.783,-21.428 0,-20.387" style="fill:rgb(47,73,157);fill-rule:nonzero;"/>
    </g>
    <g transform="matrix(1,0,0,1,119.847,238.851)">
        <path d="M0,-18.422C6.907,-11.914 2.392,-0.764 -6.901,0.001C-10.837,0.47 -12.917,-4.671 -9.847,-7.08C-8.835,-7.976 -7.601,-8.65 -6.427,-9.208C-3.049,-10.794 -1.997,-14.129 -1.375,-17.838C-1.344,-18.513 -0.5,-18.892 0,-18.422" style="fill:rgb(47,73,157);fill-rule:nonzero;"/>
    </g>
    <g transform="matrix(-0.739259,0.673422,0.673422,0.739259,166.099,260.744)">
        <path d="M13.539,-30.798C11.982,-15.024 29.885,-17.59 30.54,-17.324C27.698,-11.043 18.609,0.741 13.539,0.962C3.691,1.392 -3.78,-7.109 -0.283,-13.587C1.841,-17.523 13.712,-32.544 13.539,-30.798" style="fill:rgb(47,73,157);fill-rule:nonzero;"/>
    </g>
    <g transform="matrix(1,0,0,1,91.2398,207.865)">
        <path d="M0,-107.779C-15.026,-113.056 -28.434,-114.171 -37.195,-103.324C-40.911,-98.721 -42.842,-92.93 -43.047,-87.018L-43.654,-69.471L-48.423,-49.98C-77.13,-36.26 -68.181,-12.879 -68.181,-12.879C-80.15,-16.344 -91.126,-11.335 -89.131,-0.363C-88.738,1.801 -87.199,4.101 -84.898,6.392C-82.847,4.733 -80.492,3.413 -78.248,2.465C-75.648,1.368 -72.851,0.584 -70.018,0.481C-67.7,0.398 -65.398,0.847 -63.115,1.179C-60.366,1.577 -57.432,2.066 -54.655,1.674C-53.835,1.559 -52.679,1.345 -52.186,0.597C-51.603,-0.289 -51.514,-1.673 -51.355,-2.69C-50.942,-5.319 -50.889,-8.081 -49.983,-10.602C-48.744,-14.056 -47.28,-17.44 -45.492,-20.647C-41.886,-27.114 -36.878,-32.788 -30.349,-36.398C-30.103,-36.534 -29.738,-36.518 -29.543,-36.294C-29.247,-35.953 -28.969,-35.596 -28.703,-35.23C-30.462,-39.434 -30.462,-50.019 -26.065,-59.667C-25.905,-60.018 -25.609,-60.283 -25.246,-60.155C-19.433,-58.118 -13.408,-56.02 -7.207,-55.686C-2.277,-55.421 2.646,-56.568 6.129,-60.267C8.776,-63.078 20.684,-81.753 0,-107.779" style="fill:rgb(248,189,33);fill-rule:nonzero;"/>
    </g>
    <g transform="matrix(1,0,0,1,102.739,149.583)">
        <path d="M0,-25.444C-0.172,-23.335 -0.738,-21.241 -1.544,-19.399C-3.491,-14.953 -7.471,-11.726 -11.883,-9.884C-16.388,-8.002 -21.237,-7.772 -25.967,-8.878C-30.434,-9.921 -34.959,-12.123 -37.797,-15.833C-40.614,-19.515 -41.246,-24.243 -43.29,-28.305C-43.483,-26.29 -43.365,-24.219 -43.182,-22.23C-42.48,-14.553 -39.18,-7.799 -35.261,-1.356C-29.909,0.506 -24.382,2.29 -18.706,2.596C-13.776,2.861 -8.853,1.714 -5.37,-1.985C-3.64,-3.822 2.039,-12.435 0,-25.444" style="fill:white;fill-rule:nonzero;"/>
    </g>
    <g transform="matrix(1,0,0,1,182.974,144.746)">
        <path d="M0,53.164C0,53.164 16.884,41.108 11.053,21.897C7.09,8.844 -2.301,2.989 -14.08,-9.327C-5.072,-31.284 -40.247,-44.659 -40.247,-44.659L-52.218,-44.659C-57.734,-43.891 -63.574,-42.581 -67.687,-38.801C-83.599,-24.177 -78.94,-8.787 -79.208,-7.461C-78.869,-5.989 -78.421,-4.544 -77.824,-3.15C-75.34,2.646 -70.54,6.975 -64.64,9.127C-56.827,11.976 -47.905,11.112 -40.861,6.658C-40.468,6.409 -39.802,6.726 -39.861,7.232C-40.102,9.302 -39.967,11.373 -39.169,13.316C-38.458,15.045 -37.304,16.552 -36.082,17.949C-33.632,20.752 -30.995,23.377 -28.845,26.432C-26.301,30.045 -24.337,34.082 -22.977,38.284C-21.574,42.622 -21.005,47.513 -21.544,52.047C-21.791,54.127 -22.077,56.181 -23.202,57.95C-31.018,70.243 -9.977,97.823 12.135,77.219C20.967,68.99 0,53.164 0,53.164" style="fill:rgb(248,189,33);fill-rule:nonzero;"/>
    </g>
    <g transform="matrix(1,0,0,1,142.113,135.746)">
        <path d="M0,15.658C0.13,15.575 0.287,15.573 0.441,15.601C2.717,13.24 4.936,10.649 6.039,7.512C7.495,3.368 6.847,-1.004 6.379,-5.318C5.305,-1.315 3.783,2.539 0.368,5.194C-3.977,8.572 -9.522,9.385 -14.879,9.037C-19.262,8.752 -23.582,7.908 -27.611,6.118C-31.294,4.481 -34.7,2.015 -36.951,-1.373C-37.757,-2.585 -38.348,-3.881 -38.776,-5.221C-38.85,-1.487 -38.245,1.037 -38.347,1.539C-38.008,3.011 -37.56,4.456 -36.963,5.85C-34.479,11.646 -29.679,15.975 -23.778,18.127C-15.966,20.976 -7.044,20.112 0,15.658" style="fill:white;fill-rule:nonzero;"/>
    </g>
    <g transform="matrix(0.953557,-0.301212,-0.301212,-0.953557,62.2398,45.4838)">
        <path d="M-4.306,-0.224C-16.205,7.84 -16.781,19.197 -12.011,23.871C-10.345,25.504 -7.362,26.186 -4.306,25.396C7.27,22.401 14.472,22.897 14.472,22.897C12.148,12.069 6.374,3.977 -4.306,-0.224" style="fill:white;fill-rule:nonzero;"/>
    </g>
    <g transform="matrix(1,0,0,1,47.6013,15.431)">
        <path d="M0,29.085C-0.841,29.085 -1.684,28.773 -2.34,28.146C-8.159,22.582 -10.029,15.015 -6.993,9.317C-5.284,6.111 -1.568,3.98 2.704,3.753C14.081,3.152 23.273,0.544 23.364,0.519C25.165,0 27.036,1.04 27.552,2.836C28.069,4.632 27.033,6.507 25.238,7.024C24.835,7.14 15.248,9.87 3.063,10.514C0.926,10.627 -0.551,11.623 -1.018,12.5C-2.341,14.984 -1.613,19.475 2.34,23.254C3.69,24.546 3.738,26.688 2.446,28.04C1.781,28.735 0.891,29.085 0,29.085" style="fill:rgb(47,73,157);fill-rule:nonzero;"/>
    </g>
    <g transform="matrix(1,0,0,1,45.0919,31.3767)">
        <path d="M0,-6.008C0,-6.008 9.484,4.782 17.218,0.997L23.422,-10.79L0,-6.008Z" style="fill:rgb(47,73,157);fill-rule:nonzero;"/>
    </g>
    <g transform="matrix(0.939268,-0.343184,-0.343184,-0.939268,161.667,25.4392)">
        <path d="M-5.023,-2.148C6.876,5.916 7.451,17.273 2.683,21.946C1.016,23.579 -1.967,24.262 -5.023,23.47C-16.599,20.477 -23.802,20.972 -23.802,20.972C-21.478,10.145 -15.703,2.053 -5.023,-2.148" style="fill:white;fill-rule:nonzero;"/>
    </g>
    <g transform="matrix(1,0,0,1,157.683,-0.67642)">
        <path d="M0,33.243C-0.687,33.243 -1.379,33.035 -1.977,32.603C-3.494,31.509 -3.837,29.393 -2.742,27.877C0.992,22.7 2.447,17.154 1.25,12.662C0.618,10.289 -0.756,8.42 -2.424,7.665C-3.329,7.254 -5.109,7.367 -6.868,8.581C-17.049,15.597 -24.325,17.749 -24.629,17.837C-26.422,18.358 -28.302,17.322 -28.821,15.526C-29.34,13.733 -28.309,11.859 -26.519,11.336C-26.428,11.309 -19.882,9.328 -10.71,3.007C-7.189,0.579 -2.945,0 0.367,1.497C3.918,3.105 6.624,6.539 7.791,10.919C9.514,17.382 7.676,25.007 2.747,31.838C2.086,32.755 1.05,33.242 0,33.243" style="fill:rgb(47,73,157);fill-rule:nonzero;"/>
    </g>
    <g transform="matrix(1,0,0,1,154.876,20.1047)">
        <path d="M0,-16.056C0,-16.056 -0.931,-1.721 -9.367,0L-21.475,-5.553L0,-16.056Z" style="fill:rgb(47,73,157);fill-rule:nonzero;"/>
    </g>
    <g transform="matrix(1,0,0,1,160.199,25.8827)">
        <path d="M0,29.237C-0.487,36.17 -6.381,42.356 -14.889,44.416C-18.73,39.25 -38.071,28.721 -54.095,30.211C-63.618,30.215 -80.377,35.52 -91.687,48.266C-97.395,46.972 -107.393,45.547 -108.09,30.294C-109.184,6.351 -86.121,-16.301 -56.283,-17.665C-26.445,-19.029 1.681,5.328 0,29.237" style="fill:rgb(248,189,33);fill-rule:nonzero;"/>
    </g>
    <g transform="matrix(1,0,0,1,-228.113,-118.792)">
        <g opacity="0.62">
            <g transform="matrix(1,0,0,1,327.488,161.421)">
                <path d="M0,9.838C-0.063,8.451 3.659,-1.676 5.347,-2.727C5.796,-3.007 6.352,-3.033 6.825,-2.795C8.601,-1.902 13.232,7.843 13.296,9.23C13.376,10.981 10.464,12.536 6.793,12.703C3.121,12.871 0.08,11.588 0,9.838" style="fill:rgb(230,133,79);fill-rule:nonzero;"/>
            </g>
        </g>
    </g>
    <g transform="matrix(1,0,0,1,55.9991,4.85788)">
        <path d="M0,103.279C-13.578,95.114 -19.417,85.2 -20.154,69.061C-20.869,53.445 -14.043,36.895 -1.427,23.654C11.798,9.774 29.201,1.668 47.577,0.828C65.987,0 84.023,6.474 98.458,19.088C112.23,31.123 120.538,46.982 121.251,62.598C121.981,78.582 114.37,92.799 99.819,102.632L96.028,97.024C104.887,91.037 115.281,80.258 114.489,62.907C113.86,49.125 106.393,35.012 94.004,24.186C80.889,12.724 64.484,6.819 47.886,7.591C31.262,8.351 15.489,15.714 3.474,28.323C-7.875,40.235 -14.022,54.97 -13.393,68.752C-12.764,82.496 -8.03,90.55 3.49,97.478L0,103.279Z" style="fill:rgb(47,73,157);fill-rule:nonzero;"/>
    </g>
    <g transform="matrix(1,0,0,1,146.942,60.5515)">
        <path d="M0,-21.816C6.661,-16.587 5.701,-5.322 -2.247,-1.901C-3.719,-1.076 -10.821,0.845 -10.67,-2.067C-10.655,-2.51 -10.443,-2.9 -10.121,-3.155C-7.437,-5.16 -4.389,-6.717 -2.878,-9.789C-1.571,-12.998 -2.213,-16.634 -2.386,-20.346C-2.624,-21.671 -1.063,-22.661 0,-21.816" style="fill:rgb(47,73,157);fill-rule:nonzero;"/>
    </g>
    <g transform="matrix(1,0,0,1,141.481,148.494)">
        <path d="M0,7.02C-5.102,9.986 -9.969,4.778 -8.668,-0.402C-8.375,-1.216 -8.256,-2.966 -7.019,-2.565C-6.759,-2.456 -6.603,-2.235 -6.532,-1.983C-6,-0.287 -5.656,1.844 -4.596,3.17C-3.529,4.451 -2.038,4.874 -0.34,5.483C0.397,5.627 0.651,6.601 0,7.02" style="fill:rgb(47,73,157);fill-rule:nonzero;"/>
    </g>
    <g transform="matrix(1,0,0,1,123.767,146.287)">
        <path d="M0,12.332C-5.745,13.13 -11.091,7.28 -8.058,1.788C-7.509,1.059 -6.781,-0.798 -5.679,-0.048C-5.426,0.16 -5.368,0.47 -5.405,0.768C-5.64,2.765 -6.015,5.021 -4.716,6.65C-3.475,8.3 -1.46,9.437 0.302,10.787C0.97,11.165 0.763,12.247 0,12.332" style="fill:rgb(47,73,157);fill-rule:nonzero;"/>
    </g>
    <g transform="matrix(1,0,0,1,177.511,225.713)">
        <path d="M0,7.828C0.443,5.282 0.353,3.422 -1.506,1.55C-2.19,0.866 -2.904,0.226 -3.592,-0.522C-3.947,-0.863 -3.955,-1.442 -3.576,-1.767C-2.899,-2.229 -2.012,-1.777 -1.268,-1.684C1.877,-0.93 4.78,2.516 3.619,5.903C3.357,7.019 1.186,10.057 0.065,8.517C-0.056,8.303 -0.031,8.055 0,7.828" style="fill:rgb(47,73,157);fill-rule:nonzero;"/>
    </g>
    <g transform="matrix(1,0,0,1,190.71,219.339)">
        <path d="M0,8.724C1.298,4.023 1.164,2.809 -2.462,-0.507C-2.824,-0.84 -2.849,-1.419 -2.471,-1.75C-1.749,-2.238 -0.813,-1.709 -0.022,-1.594C3.506,-0.57 5.765,3.661 3.901,7.03C3.401,8.056 1.083,10.962 0.034,9.416C-0.082,9.19 -0.06,8.951 0,8.724" style="fill:rgb(47,73,157);fill-rule:nonzero;"/>
    </g>
    <g transform="matrix(1,0,0,1,88.0178,140.204)">
        <path d="M0,9.596C1.696,6.063 3.338,2.947 2.695,-1.085C2.558,-1.859 3.572,-2.373 4.101,-1.794C6.946,0.958 6.775,6.008 4.112,8.838C3.403,9.604 0.622,11.969 -0.09,10.277C-0.162,10.037 -0.097,9.808 0,9.596" style="fill:rgb(47,73,157);fill-rule:nonzero;"/>
    </g>
    <g transform="matrix(1,0,0,1,72.9742,142.431)">
        <path d="M0,9.161C1.721,6.278 3.536,3.608 2.99,0.15C2.969,-0.637 2.282,-2.284 3.563,-2.439C3.795,-2.451 4.011,-2.362 4.167,-2.214C5.07,-1.351 5.822,-0.259 6.199,1.047C7.094,3.611 6.192,6.856 4.241,8.691C3.49,9.438 0.371,11.612 -0.165,9.845C-0.215,9.592 -0.124,9.365 0,9.161" style="fill:rgb(47,73,157);fill-rule:nonzero;"/>
    </g>
    <g transform="matrix(-0.959474,-0.281797,-0.281797,0.959474,153.389,72.0941)">
        <path d="M9.416,-33.614C-8.448,-26.141 -12.54,-3.172 8.767,2.642C9.388,2.798 9.851,1.996 9.416,1.536C-3.819,-12.004 0.469,-18.641 10.177,-32.583C10.609,-33.084 10.019,-33.882 9.416,-33.614" style="fill:rgb(47,73,157);fill-rule:nonzero;"/>
    </g>
    <g transform="matrix(1,0,0,1,64.7746,59.8023)">
        <path d="M0,-16.791C0.249,-12.592 -0.373,-8.204 2.391,-5.081C4.2,-2.977 6.703,-1.95 9.082,-0.499C9.861,-0.105 10.187,0.873 9.696,1.62C8.722,2.82 6.567,2.284 5.145,2.407C1.172,1.992 -2.522,0.178 -4.675,-3.598C-6.766,-7.345 -6.519,-11.55 -4.71,-15.076C-3.918,-16.406 -2.295,-19.611 -0.407,-17.96C-0.093,-17.631 0.002,-17.214 0,-16.791" style="fill:rgb(47,73,157);fill-rule:nonzero;"/>
    </g>
    <g transform="matrix(1,0,0,1,57.7592,75.7313)">
        <path d="M0,-34.264C-3.903,-17.701 -5.422,-9.974 11.853,-2.262C12.435,-1.999 12.283,-1.069 11.656,-0.995C-3.269,1.148 -12.936,-11.206 -7.458,-25.177C-6.012,-28.905 -3.945,-32.234 -1.088,-34.943C-0.616,-35.412 0.214,-34.888 0,-34.264" style="fill:rgb(47,73,157);fill-rule:nonzero;"/>
    </g>
    <g transform="matrix(1,0,0,1,80.7095,13.1163)">
        <path d="M0,9.305C11.219,-1.328 29.213,-1.371 42.713,4.621C44.63,5.562 46.498,6.589 48.266,7.775C48.579,7.985 48.662,8.409 48.452,8.722C48.305,8.941 48.061,9.041 47.815,9.022C41.726,8.645 35.869,7.702 29.802,7.52C19.984,7.03 10.596,7.836 0.744,10.403C0.099,10.676 -0.512,9.801 0,9.305" style="fill:rgb(47,73,157);fill-rule:nonzero;"/>
    </g>
    <g transform="matrix(1,0,0,1,88.9974,22.9956)">
        <path d="M0,8.269C7.09,-0.571 21.551,-1.269 30.33,5.341C30.927,5.979 32.79,6.749 32.02,7.777C31.874,7.926 31.687,7.99 31.492,7.992C26.257,8.002 21.15,7.46 15.996,7.73C10.833,7.898 6.026,8.615 0.749,9.363C0.132,9.538 -0.4,8.777 0,8.269" style="fill:rgb(47,73,157);fill-rule:nonzero;"/>
    </g>
    <g transform="matrix(1,0,0,1,124.467,62.8531)">
        <path d="M0,-0.399C-0.769,-0.934 -1.822,-0.748 -2.357,0.018C-4.607,3.236 -6.977,4.894 -9.405,4.946C-12.579,5.034 -15.218,2.372 -16.102,1.375L-16.503,-7.391C-16.546,-8.324 -17.284,-9.061 -18.272,-9.004C-18.301,-9.003 -18.324,-8.986 -18.353,-8.984C-18.382,-8.984 -18.406,-8.997 -18.435,-8.996C-19.369,-8.954 -20.091,-8.162 -20.048,-7.228L-19.645,1.576C-20.258,2.474 -22.066,4.756 -24.821,5.198C-27.44,5.612 -30.362,4.335 -33.528,1.39C-34.21,0.755 -35.283,0.792 -35.919,1.476C-36.557,2.161 -36.518,3.232 -35.833,3.869C-32.408,7.055 -29.046,8.662 -25.814,8.662C-25.301,8.662 -24.791,8.621 -24.285,8.54C-21.149,8.037 -18.952,6.076 -17.696,4.593C-16.066,6.156 -13.151,8.332 -9.526,8.332C-9.47,8.332 -9.414,8.332 -9.357,8.33C-5.78,8.264 -2.492,6.119 0.417,1.958C0.953,1.191 0.766,0.137 0,-0.399" style="fill:rgb(47,73,157);fill-rule:nonzero;"/>
    </g>
    <g transform="matrix(1,0,0,1,106.74,77.6023)">
        <path d="M0,6.539C-3.863,6.539 -6.733,3.358 -6.857,3.22C-7.477,2.522 -7.414,1.452 -6.715,0.831C-6.015,0.213 -4.952,0.274 -4.329,0.968C-4.276,1.026 -2.249,3.228 0.116,3.152C1.419,3.111 2.678,2.338 3.859,0.855C4.438,0.124 5.502,0 6.236,0.583C6.968,1.165 7.089,2.23 6.507,2.962C4.673,5.269 2.549,6.472 0.192,6.536C0.129,6.538 0.064,6.539 0,6.539" style="fill:rgb(47,73,157);fill-rule:nonzero;"/>
    </g>
    <g transform="matrix(1,0,0,1,111.975,55.5654)">
        <path d="M0,-2.046C0.054,-0.868 -3.542,1.414 -5.036,2.31C-5.434,2.548 -5.925,2.571 -6.342,2.37C-7.912,1.614 -11.701,-0.331 -11.755,-1.509C-11.823,-2.995 -9.246,-4.32 -6,-4.468C-2.754,-4.617 -0.068,-3.532 0,-2.046" style="fill:rgb(201,149,166);fill-rule:nonzero;"/>
    </g>
    <g transform="matrix(1,0,0,1,102.109,55.1925)">
        <path d="M0,-1.292C0.57,-0.799 1.888,0.066 4.105,1.144C6.215,-0.131 7.447,-1.113 7.971,-1.656C7.415,-2.016 6.023,-2.492 3.943,-2.405C1.87,-2.31 0.521,-1.702 0,-1.292M4.122,4.573C3.668,4.573 3.213,4.471 2.79,4.268C-3.473,1.253 -3.542,-0.25 -3.58,-1.058C-3.695,-3.598 -0.596,-5.586 3.789,-5.786C5.591,-5.865 7.336,-5.612 8.691,-5.066C11.097,-4.095 11.519,-2.572 11.557,-1.75C11.593,-0.942 11.662,0.561 5.7,4.134C5.214,4.426 4.669,4.573 4.122,4.573" style="fill:rgb(47,73,157);fill-rule:nonzero;"/>
    </g>
    <g transform="matrix(1,0,0,1,117.224,41.7818)">
        <path d="M0,5.463C1.456,-3.357 13.304,-2.913 20.038,-2C20.589,-1.931 20.98,-1.43 20.912,-0.879C20.852,-0.389 20.448,-0.025 19.971,0.001C18.28,0.095 16.596,0.168 14.95,0.37C11.391,0.915 5.974,1.686 4.653,5.41C4.712,8.257 0.241,8.82 0,5.463" style="fill:rgb(47,73,157);fill-rule:nonzero;"/>
    </g>
    <g transform="matrix(1,0,0,1,90.5533,43.8345)">
        <path d="M0,3.369C-0.619,-0.181 -8.037,-0.477 -11.333,-0.569C-13.147,-0.618 -14.985,-0.501 -16.83,-0.451C-17.384,-0.436 -17.845,-0.873 -17.861,-1.427C-17.875,-1.925 -17.522,-2.349 -17.049,-2.44C-13.335,-3.22 -9.541,-3.837 -5.709,-3.693C-1.258,-3.497 4.782,-2.069 4.569,4.213C3.959,7.206 -0.502,6.381 0,3.369" style="fill:rgb(47,73,157);fill-rule:nonzero;"/>
    </g>
    <g transform="matrix(1,0,0,1,141.534,150.474)">
        <path d="M0,25.81C7.738,14.685 23.464,-1.587 38.323,0.061C44.531,0.778 50.374,6.12 49.969,12.529C49.957,13.187 49.162,13.634 48.63,13.254C43.895,9.879 40.907,8.921 37.394,8.899C24.163,9.041 11.694,19.214 1.126,26.836C0.481,27.397 -0.508,26.508 0,25.81" style="fill:rgb(47,73,157);fill-rule:nonzero;"/>
    </g>
    <g transform="matrix(1,0,0,1,64.6757,156.447)">
        <path d="M0,26.773C-4.756,19.998 -9.647,11.77 -17.95,9.616C-19.887,9.016 -21.808,8.62 -28.415,8.942C-29.002,8.971 -27.083,7.529 -26.949,6.954C-25.157,0.038 -15.568,-0.706 -10.552,3.056C-5.854,6.271 -2.813,11.403 -0.916,16.377C0.296,19.61 1.129,22.89 1.449,26.303C1.545,27.107 0.39,27.479 0,26.773" style="fill:rgb(47,73,157);fill-rule:nonzero;"/>
    </g>
    <g transform="matrix(1,0,0,1,44.835,173.146)">
        <path d="M0,19.471C-3.528,16.684 -7.065,13.704 -10.843,11.584C-13.083,10.313 -14.873,9.972 -16.683,8.881C-18.261,8.128 -18.861,7.462 -21.039,6.141C-21.498,5.853 -21.696,5.306 -21.563,4.808C-21.048,2.875 -19.634,1.665 -18.05,1.078C-13.522,-0.516 -8.6,2.399 -5.916,5.463C-4.06,7.406 -2.592,9.508 -1.399,11.721C-0.21,13.938 0.74,16.218 1.31,18.693C1.502,19.428 0.545,19.987 0,19.471" style="fill:rgb(47,73,157);fill-rule:nonzero;"/>
    </g>
    <g transform="matrix(1,0,0,1,161.549,172.191)">
        <path d="M0,15.045C6.248,7.477 18.41,-1.316 28.633,3.768C31.714,5.409 35.585,9.943 31.541,12.599C30.036,13.484 28.217,13.081 27.098,11.871C25.751,10.629 24.6,10.1 22.651,9.878C15.255,9.637 8.084,13.334 0.797,16.067C0.189,16.361 -0.435,15.558 0,15.045" style="fill:rgb(47,73,157);fill-rule:nonzero;"/>
    </g>
    <g transform="matrix(1,0,0,1,133.353,101.938)">
        <path d="M0,10.737C-6.215,8.678 -12.363,6.061 -18.34,9.074C-19.764,9.917 -21.653,9.439 -22.349,7.896C-22.858,6.791 -22.567,5.52 -21.722,4.735C-16.586,-0.115 -8.436,1.774 -3.503,5.755C-2.837,6.209 2.615,10.852 0,10.737" style="fill:rgb(47,73,157);fill-rule:nonzero;"/>
    </g>
    <g transform="matrix(0.242621,0.970121,0.970121,-0.242621,70.0119,91.2636)">
        <path d="M15.334,-6.166C8.888,-1.187 4.416,9.639 10.935,16.367C13.126,18.56 16.719,15.923 15.334,13.194C11.871,7.249 14.254,0.859 16.15,-5.557C16.347,-6.036 15.732,-6.491 15.334,-6.166" style="fill:rgb(47,73,157);fill-rule:nonzero;"/>
    </g>
    <g transform="matrix(1,0,0,1,125.603,180.301)">
        <path d="M0,-13.339C-3.71,-3.749 -13.431,2.505 -23.448,3.795C-34.297,1.064 -43.958,-6.014 -49.527,-15.675C-49.909,-16.337 -49.109,-17.134 -48.453,-16.747C-40.017,-11.988 -31.526,-6.912 -22.287,-4.166L-23.821,-4.246C-19.821,-4.789 -15.962,-5.856 -12.251,-7.526C-8.375,-9.242 -4.692,-11.534 -1.277,-14.17C-0.712,-14.73 0.292,-14.08 0,-13.339" style="fill:rgb(47,73,157);fill-rule:nonzero;"/>
    </g>
    <g transform="matrix(1,0,0,1,114.869,202.994)">
        <path d="M0,-5.668C-2.854,-1.34 -7.834,1.232 -12.886,1.972C-17.942,0.911 -22.654,-2.294 -25.058,-6.916C-25.237,-7.25 -24.846,-7.64 -24.516,-7.461C-23.418,-6.908 -22.426,-6.301 -21.407,-5.767C-18.486,-4.189 -15.526,-2.899 -12.324,-2.066L-13.102,-2.107C-10.967,-2.413 -8.87,-2.888 -6.811,-3.594C-4.718,-4.271 -2.639,-5.185 -0.543,-6.217C-0.203,-6.432 0.222,-6.003 0,-5.668" style="fill:rgb(47,73,157);fill-rule:nonzero;"/>
    </g>
    <g transform="matrix(1,0,0,1,148.571,113.638)">
        <path d="M0,27.606C5.602,28.133 13.494,26.866 15.543,20.969C16.838,17.288 17.273,13.16 15.902,9.63C11.659,1.488 4.43,-6.365 -4.137,-9.25C-20.972,-14.456 -39.888,-4.723 -42.382,13.389C-44.761,36.292 -29.931,43.392 -11.529,37.358C0.157,30.994 1.397,9.552 -7.188,0.177C-8.97,-1.617 -6.448,-4.387 -4.499,-2.784C5.135,5.906 5.997,21.959 0.76,33.236C-1.192,37.253 -4.354,41.088 -8.656,43.298C-16.506,46.164 -25.269,47.513 -33.494,44.609C-46.585,40.246 -51.218,24.9 -49.471,12.398C-47.863,-0.277 -38.747,-11.692 -26.571,-15.714C-14.614,-19.907 -0.528,-18.353 9.23,-10.037C14.066,-6.12 17.916,-1.366 21.066,3.897C23.51,7.616 24.33,12.771 23.714,17.124C22.5,30.536 11.391,35.704 -0.902,34.315C-5.378,33.635 -4.478,27.081 0,27.606" style="fill:rgb(47,73,157);fill-rule:nonzero;"/>
    </g>
    <g transform="matrix(1,0,0,1,63.9334,98.0228)">
        <path d="M0,51.875C-18.794,51.709 -24.571,34.321 -19.955,18.466C-15.989,4.252 -1.936,-7.289 13.203,-5.732C23.16,-5.197 32.721,1.28 36.971,10.27C43.515,23.723 46.579,49.458 29.711,56.391C22.675,59.164 15.264,58.62 8.098,56.753C-2.075,54.074 -8.06,44.318 -8.138,34.174C-8.327,29.502 -7.645,24.959 -6.463,20.628C-6.237,19.797 -5.379,19.307 -4.548,19.534C-3.818,19.733 -3.351,20.418 -3.402,21.145C-4.881,40.171 0.552,52.858 21.674,51.291C32.902,50.426 35.6,41.025 34.777,31.167C34.343,25.194 33.091,18.925 30.333,13.731C22.975,-1.108 2.724,-2.104 -7.335,10.518C-14.004,18.076 -17.635,33.794 -9.805,41.453C-7.279,43.798 -3.469,45.059 -0.018,45.112C4.371,45.28 4.371,51.685 0,51.875" style="fill:rgb(47,73,157);fill-rule:nonzero;"/>
    </g>
    <g transform="matrix(1,0,0,1,172.601,205.052)">
        <path d="M0,-72.558C12.134,-63.693 22.674,-51.027 24.693,-35.683C26.159,-20.649 16.76,-7.414 4.845,0.402C3.99,0.9 3.182,1.39 1.843,1.82C-0.446,2.535 -1.875,-0.62 0.152,-1.867C1.382,-2.54 3.089,-3.835 4.242,-4.898C12.38,-12.29 19.425,-23.671 17.64,-34.784C15.601,-47.678 5.721,-58.772 -4.249,-66.815C-7.784,-69.706 -3.823,-75.093 0,-72.558" style="fill:rgb(47,73,157);fill-rule:nonzero;"/>
    </g>
    <g transform="matrix(1,0,0,1,178.702,135.311)">
        <path d="M0,103.653C-10.527,103.654 -23.596,98.168 -35,82.705C-44.475,84.746 -79.939,91.471 -110.135,85.184C-112.453,89.516 -118.197,96.874 -130.642,97.524C-146.798,98.372 -175.964,87.136 -178.41,73.684C-179.383,68.334 -177.905,63.571 -174.249,60.27C-170.512,56.895 -164.78,55.406 -158.537,56.011C-159.531,47.544 -158.125,31.641 -137.261,20.961L-132.888,3.086C-132.418,1.168 -130.472,-0.001 -128.566,0.463C-126.647,0.932 -125.473,2.867 -125.942,4.786L-131.113,25.923L-132.643,26.653C-157.883,38.716 -150.907,58.433 -150.597,59.267L-148.129,65.917L-154.937,63.962C-160.791,62.269 -166.491,62.901 -169.457,65.577C-171.257,67.204 -171.903,69.5 -171.376,72.404C-169.921,80.401 -145.728,91.151 -131.016,90.383C-118.826,89.746 -115.76,80.412 -115.636,80.014L-114.637,76.83L-111.382,77.579C-78.07,85.563 -34.741,75.324 -34.305,75.22L-31.921,74.646L-30.527,76.664C-18.132,94.611 -3.834,98.319 5.428,95.808C10.605,94.401 14.268,90.959 14.543,87.242C15.386,75.852 3.839,66.325 3.722,66.23C2.193,64.986 1.955,62.736 3.197,61.204C4.436,59.671 6.683,59.43 8.217,60.668C8.813,61.149 22.797,72.61 21.674,87.771C21.167,94.611 15.527,100.474 7.303,102.708C5.069,103.315 2.612,103.653 0,103.653" style="fill:rgb(47,73,157);fill-rule:nonzero;"/>
    </g>
    <g transform="matrix(1,0,0,1,8.77127,219.542)">
        <path d="M0,-5.285C0,-5.285 1.692,-10.274 7.977,-8.582C14.262,-6.89 19.007,-0.882 16.018,2.054C13.03,4.989 0,-5.285 0,-5.285" style="fill:rgb(47,73,157);fill-rule:nonzero;"/>
    </g>
    <g transform="matrix(-0.419523,-0.907745,-0.907745,0.419523,9.78489,205.299)">
        <path d="M-1.798,-2.811C-3.594,-2.81 -5.05,-1.924 -5.05,-0.83C-5.051,0.263 -3.594,1.149 -1.798,1.149C-0.002,1.149 1.455,0.263 1.455,-0.831C1.455,-1.924 -0.001,-2.81 -1.798,-2.811" style="fill:rgb(47,73,157);fill-rule:nonzero;"/>
    </g>
</svg>
