<?xml version="1.0" encoding="UTF-8" standalone="no"?>
<!DOCTYPE svg PUBLIC "-//W3C//DTD SVG 1.1//EN" "http://www.w3.org/Graphics/SVG/1.1/DTD/svg11.dtd">
<svg width="100%" height="100%" viewBox="0 0 355 113" version="1.1" xmlns="http://www.w3.org/2000/svg" xmlns:xlink="http://www.w3.org/1999/xlink" xml:space="preserve" xmlns:serif="http://www.serif.com/" style="fill-rule:evenodd;clip-rule:evenodd;stroke-linejoin:round;stroke-miterlimit:2;">
    <g transform="matrix(1,0,0,1,196.895,83.8467)">
        <path d="M0,-44.798L-41.516,-44.798L-41.516,-32.821L-28.387,-32.821L-28.387,0L-13.127,0L-13.127,-32.821L0,-32.821L0,-44.798Z" style="fill:rgb(47,73,157);fill-rule:nonzero;"/>
    </g>
    <g transform="matrix(1,0,0,1,-172.211,-494.437)">
        <rect x="373.531" y="533.486" width="15.26" height="44.798" style="fill:rgb(47,73,157);"/>
    </g>
    <g transform="matrix(1,0,0,1,226.309,44.6438)">
        <path d="M0,33.607C3.698,37.32 9.366,39.202 16.844,39.202C23.976,39.202 25.727,35.768 25.727,35.768L25.69,36.817L25.676,39.202L39.243,39.202L39.243,10.815L17.419,10.815L17.419,22.792L23.149,22.792L22.744,23.62C21.57,26.012 19.585,27.225 16.844,27.225C12.106,27.225 9.705,23.719 9.705,16.804C9.705,9.888 12.106,6.382 16.844,6.382L39.243,6.382L39.243,-5.595L16.844,-5.595C1.646,-5.595 -5.509,4.376 -5.555,16.633C-5.583,24.168 -3.714,29.879 0,33.607" style="fill:rgb(47,73,157);fill-rule:nonzero;"/>
    </g>
    <g transform="matrix(1,0,0,1,308.234,71.8688)">
        <path d="M0,-20.843L0,-32.82L-38.234,-32.82L-38.234,11.977L0,11.977L0,-0L-22.974,-0L-22.974,-4.433L0,-4.433L0,-16.41L-22.974,-16.41L-22.974,-20.843L0,-20.843Z" style="fill:rgb(47,73,157);fill-rule:nonzero;"/>
    </g>
    <g transform="matrix(1,0,0,1,327.919,71.8688)">
        <path d="M0,-20.843L7.14,-20.843C9.626,-20.843 10.997,-19.473 10.997,-16.985C10.997,-14.498 9.626,-13.128 7.14,-13.128L0,-13.128L0,-20.843ZM10.801,11.977L25.958,11.977L19.276,-3.606L19.717,-3.862C24.116,-6.422 26.256,-10.715 26.256,-16.985C26.256,-27.64 20.003,-32.82 7.14,-32.82L-15.26,-32.82L-15.26,11.977L0,11.977L0,-1.15L5.189,-1.15L10.801,11.977Z" style="fill:rgb(47,73,157);fill-rule:nonzero;"/>
    </g>
    <g transform="matrix(0.95396,0.299934,0.299934,-0.95396,13.5374,24.6522)">
        <path d="M4.043,-1.667C-7.096,5.883 -7.636,16.515 -3.171,20.891C-1.611,22.42 1.183,23.059 4.043,22.318C14.88,19.515 21.624,19.979 21.624,19.979C19.448,9.842 14.042,2.266 4.043,-1.667" style="fill:white;fill-rule:nonzero;"/>
    </g>
    <g transform="matrix(1,0,0,1,16.8957,-0.594716)">
        <path d="M0,31.219C-0.933,31.219 -1.858,30.808 -2.485,30.019C-7.385,23.841 -9.429,16.788 -8.096,10.67C-7.19,6.524 -4.808,3.198 -1.555,1.542C1.478,0 5.471,0.36 8.869,2.48C17.736,8.011 23.95,9.579 24.012,9.594C25.707,10.012 26.75,11.724 26.337,13.422C25.926,15.117 24.227,16.165 22.521,15.755C22.234,15.685 15.336,13.984 5.516,7.857C3.817,6.798 2.146,6.769 1.318,7.191C-0.209,7.968 -1.413,9.774 -1.903,12.02C-2.83,16.273 -1.233,21.398 2.482,26.081C3.568,27.452 3.339,29.446 1.968,30.533C1.385,30.995 0.69,31.219 0,31.219" style="fill:rgb(47,73,157);fill-rule:nonzero;"/>
    </g>
    <g transform="matrix(1,0,0,1,16.8957,-0.594716)">
        <path d="M0,31.219C-0.933,31.219 -1.858,30.808 -2.485,30.019C-7.385,23.841 -9.429,16.788 -8.096,10.67C-7.19,6.524 -4.808,3.198 -1.555,1.542C1.478,0 5.471,0.36 8.869,2.48C17.835,8.072 25.152,10.26 25.226,10.281C26.904,10.775 27.866,12.534 27.374,14.213C26.883,15.892 25.121,16.856 23.448,16.365C23.119,16.269 15.271,13.944 5.516,7.857C3.817,6.798 2.146,6.769 1.318,7.191C-0.209,7.968 -1.413,9.774 -1.903,12.02C-2.83,16.273 -1.233,21.398 2.482,26.081C3.568,27.452 3.339,29.446 1.968,30.533C1.385,30.995 0.69,31.219 0,31.219" style="fill:rgb(47,73,157);fill-rule:nonzero;"/>
    </g>
    <g transform="matrix(1,0,0,1,18.4473,18.4455)">
        <path d="M0,-14.615C0,-14.615 1.483,-1.248 9.446,0L20.533,-5.71L0,-14.615Z" style="fill:rgb(47,73,157);fill-rule:nonzero;"/>
    </g>
    <g transform="matrix(0.95396,-0.299934,-0.299934,-0.95396,118.987,24.6522)">
        <path d="M-4.043,-1.667C7.096,5.883 7.636,16.515 3.171,20.891C1.611,22.42 -1.183,23.059 -4.043,22.318C-14.88,19.515 -21.624,19.979 -21.624,19.979C-19.448,9.842 -14.042,2.266 -4.043,-1.667" style="fill:white;fill-rule:nonzero;"/>
    </g>
    <g transform="matrix(1,0,0,1,115.628,-0.594716)">
        <path d="M0,31.219C-0.69,31.219 -1.385,30.995 -1.968,30.533C-3.339,29.446 -3.568,27.452 -2.482,26.081C1.233,21.398 2.83,16.273 1.903,12.02C1.413,9.774 0.209,7.968 -1.32,7.191C-2.148,6.77 -3.816,6.797 -5.515,7.857C-15.336,13.984 -22.234,15.685 -22.522,15.755C-24.217,16.163 -25.935,15.117 -26.343,13.414C-26.752,11.715 -25.707,10.006 -24.01,9.594C-23.883,9.563 -17.688,7.981 -8.869,2.48C-5.471,0.36 -1.478,0 1.555,1.542C4.808,3.198 7.19,6.524 8.096,10.67C9.429,16.788 7.385,23.841 2.485,30.019C1.858,30.808 0.933,31.219 0,31.219" style="fill:rgb(47,73,157);fill-rule:nonzero;"/>
    </g>
    <g transform="matrix(1,0,0,1,115.628,-0.594716)">
        <path d="M0,31.219C-0.69,31.219 -1.385,30.995 -1.968,30.533C-3.339,29.446 -3.568,27.452 -2.482,26.081C1.233,21.398 2.83,16.273 1.903,12.02C1.413,9.774 0.209,7.968 -1.32,7.191C-2.148,6.77 -3.816,6.797 -5.515,7.857C-15.271,13.944 -23.117,16.269 -23.447,16.365C-25.12,16.855 -26.885,15.89 -27.376,14.21C-27.866,12.531 -26.902,10.773 -25.225,10.281C-25.152,10.26 -17.835,8.072 -8.869,2.48C-5.471,0.36 -1.478,0 1.555,1.542C4.808,3.198 7.19,6.524 8.096,10.67C9.429,16.788 7.385,23.841 2.485,30.019C1.858,30.808 0.933,31.219 0,31.219" style="fill:rgb(47,73,157);fill-rule:nonzero;"/>
    </g>
    <g transform="matrix(1,0,0,1,114.077,18.4455)">
        <path d="M0,-14.615C0,-14.615 -1.483,-1.248 -9.446,0L-20.533,-5.71L0,-14.615Z" style="fill:rgb(47,73,157);fill-rule:nonzero;"/>
    </g>
    <g transform="matrix(0,-1,-1,0,72.9409,-4.94632)">
        <path d="M-69.771,-56.414C-97.778,-56.414 -114.163,-28.166 -114.163,6.679C-114.163,41.524 -97.778,69.771 -69.771,69.771C-41.764,69.771 -12.022,41.524 -12.022,6.679C-12.022,-28.166 -41.764,-56.414 -69.771,-56.414" style="fill:white;fill-rule:nonzero;"/>
    </g>
    <g transform="matrix(1,0,0,1,57.282,75.469)">
        <path d="M0,-10.248L9.049,-13.836L18.099,-9.86L18.099,-5.394C18.099,-0.434 14.077,3.588 9.117,3.588L8.981,3.588C4.021,3.588 0,-0.434 0,-5.394L0,-10.248Z" style="fill:rgb(47,73,157);fill-rule:nonzero;"/>
    </g>
    <g transform="matrix(1,0,0,1,116.803,21.3701)">
        <path d="M0,31.975C-0.752,38.438 -6.528,43.972 -14.574,45.534C-17.945,40.539 -35.583,29.865 -50.632,30.573C-59.539,30.17 -75.439,34.415 -86.561,45.853C-91.845,44.399 -101.265,46.27 -101.265,31.975C-101.265,9.536 -78.596,-14.295 -50.632,-14.295C-22.669,-14.295 2.594,9.686 0,31.975" style="fill:rgb(248,189,33);fill-rule:nonzero;"/>
    </g>
    <g transform="matrix(1,0,0,1,-172.211,-174.667)">
        <g opacity="0.62">
            <g transform="matrix(1,0,0,1,232.243,214.136)">
                <path d="M0,8.796C0,7.496 3.915,-1.816 5.538,-2.727C5.97,-2.97 6.491,-2.97 6.923,-2.727C8.546,-1.816 12.461,7.496 12.461,8.796C12.461,10.436 9.671,11.766 6.23,11.766C2.789,11.766 0,10.436 0,8.796" style="fill:rgb(230,133,79);fill-rule:nonzero;"/>
            </g>
        </g>
    </g>
    <g transform="matrix(1,0,0,1,66.262,106.047)">
        <path d="M0,-95.803C-27.711,-95.803 -59.924,-71.961 -59.924,-41.223C-59.924,-16.951 -35.282,-0 0,-0C35.282,-0 59.924,-16.951 59.924,-41.223C59.924,-71.961 27.711,-95.803 0,-95.803M0,6.338C-39.015,6.338 -66.262,-13.219 -66.262,-41.223C-66.262,-69.98 -37.924,-102.141 0,-102.141C37.924,-102.141 66.262,-69.98 66.262,-41.223C66.262,-13.219 39.015,6.338 0,6.338" style="fill:rgb(47,73,157);fill-rule:nonzero;"/>
    </g>
    <g transform="matrix(1,0,0,1,105.406,56.054)">
        <path d="M0,-19.385C7.248,-12.812 3.475,-1.01 -6.286,0.062C-7.783,0.007 -10.758,0.857 -10.823,-1.371C-10.788,-1.869 -10.485,-2.244 -10.092,-2.487C-7.5,-4.17 -4.181,-5.863 -3.036,-8.7C-1.86,-11.49 -2.307,-14.821 -2.295,-18.112C-2.472,-19.372 -0.959,-20.242 0,-19.385" style="fill:rgb(47,73,157);fill-rule:nonzero;"/>
    </g>
    <g transform="matrix(-0.945607,-0.325312,-0.325312,0.945607,108.74,68.279)">
        <path d="M7.659,-32.011C-9.032,-25.106 -12.869,-3.424 7.052,1.931C7.634,2.077 8.066,1.326 7.659,0.896C-4.732,-11.683 -0.673,-18.137 8.372,-31.046C8.774,-31.517 8.223,-32.26 7.659,-32.011" style="fill:rgb(47,73,157);fill-rule:nonzero;"/>
    </g>
    <g transform="matrix(1,0,0,1,28.0766,53.893)">
        <path d="M0,-15.951C-0.386,-7.2 -0.059,-4.758 7.797,-0.327C8.987,0.302 8.628,2.156 7.283,2.247C-0.53,3.255 -7.791,-3.262 -5.77,-11.313C-5.402,-13.124 -2.631,-19.206 -0.342,-17.091C-0.049,-16.766 0.021,-16.357 0,-15.951" style="fill:rgb(47,73,157);fill-rule:nonzero;"/>
    </g>
    <g transform="matrix(1,0,0,1,21.5815,68.1202)">
        <path d="M0,-31.922C-4.362,-16.75 -6.078,-9.345 9.717,-1.486C10.25,-1.216 10.068,-0.352 9.479,-0.31C-4.52,1.098 -13.108,-10.974 -7.364,-23.743C-5.834,-27.161 -3.786,-30.196 -0.988,-32.603C-0.527,-33.02 0.225,-32.496 0,-31.922" style="fill:rgb(47,73,157);fill-rule:nonzero;"/>
    </g>
    <g transform="matrix(-0.0231106,0.999733,0.999733,0.0231106,62.1578,-10.0899)">
        <path d="M29.717,-19.726C18.792,-6.098 19.057,14.932 28.559,29.229C28.912,29.79 29.833,29.432 29.717,28.78C27.334,12.762 26.991,-3.245 30.798,-19.116C31.013,-19.74 30.138,-20.245 29.717,-19.726" style="fill:rgb(47,73,157);fill-rule:nonzero;"/>
    </g>
    <g transform="matrix(-0.0368674,0.99932,0.99932,0.0368674,63.163,9.21523)">
        <path d="M19.204,-11.23C10.463,-4.068 10.378,10.806 18.065,18.749C18.472,19.187 19.242,18.842 19.204,18.254C18.677,8.466 18.57,-0.789 20.235,-10.539C20.393,-11.118 19.676,-11.609 19.204,-11.23" style="fill:rgb(47,73,157);fill-rule:nonzero;"/>
    </g>
    <g transform="matrix(1,0,0,1,58.957,49.8488)">
        <path d="M0,16.208C-3.155,16.208 -6.373,14.557 -9.581,11.287C-10.194,10.663 -10.185,9.66 -9.559,9.047C-8.937,8.434 -7.935,8.443 -7.319,9.069C-4.484,11.958 -1.798,13.274 0.662,13.002C3.257,12.706 5.044,10.649 5.657,9.836L5.657,1.584C5.657,0.709 6.366,0 7.242,0C8.117,0 8.826,0.709 8.826,1.584L8.826,10.78L8.592,11.161C8.482,11.342 5.823,15.603 1.021,16.15C0.682,16.189 0.34,16.208 0,16.208" style="fill:rgb(47,73,157);fill-rule:nonzero;"/>
    </g>
    <g transform="matrix(1,0,0,1,74.1782,49.8484)">
        <path d="M0,16.596C-0.077,16.596 -0.155,16.594 -0.232,16.593C-5.488,16.451 -8.987,11.444 -9.132,11.231L-9.411,10.825L-9.411,1.585C-9.411,0.709 -8.702,0 -7.826,0C-6.951,0 -6.242,0.709 -6.242,1.585L-6.242,9.8C-5.459,10.77 -3.098,13.354 -0.132,13.426C2.138,13.481 4.43,12.032 6.671,9.118C7.204,8.424 8.198,8.293 8.893,8.829C9.587,9.362 9.716,10.357 9.183,11.051C6.352,14.731 3.263,16.596 0,16.596" style="fill:rgb(47,73,157);fill-rule:nonzero;"/>
    </g>
    <g transform="matrix(1,0,0,1,66.6318,83.7912)">
        <path d="M0,6.182C-0.042,6.182 -0.084,6.182 -0.125,6.181C-3.833,6.112 -6.465,2.916 -6.575,2.779C-7.125,2.099 -7.02,1.101 -6.339,0.55C-5.663,0 -4.668,0.105 -4.116,0.78C-4.097,0.802 -2.276,2.981 -0.053,3.013C1.215,3.024 2.383,2.362 3.55,1.024C4.125,0.365 5.126,0.298 5.784,0.872C6.443,1.448 6.511,2.449 5.936,3.108C4.156,5.148 2.159,6.182 0,6.182" style="fill:rgb(47,73,157);fill-rule:nonzero;"/>
    </g>
    <g transform="matrix(0,-1,-1,0,45.525,37.6229)">
        <path d="M-6.218,-6.218C-10.643,-6.218 -14.23,-3.434 -14.23,0C-14.23,3.434 -10.643,6.218 -6.218,6.218C-1.793,6.218 1.794,3.434 1.794,0C1.794,-3.434 -1.793,-6.218 -6.218,-6.218" style="fill:rgb(47,73,157);fill-rule:nonzero;"/>
    </g>
    <g transform="matrix(0,-1,-1,0,87.1832,37.6229)">
        <path d="M-6.218,-6.218C-10.643,-6.218 -14.23,-3.434 -14.23,0C-14.23,3.434 -10.643,6.218 -6.218,6.218C-1.793,6.218 1.794,3.434 1.794,0C1.794,-3.434 -1.793,-6.218 -6.218,-6.218" style="fill:rgb(47,73,157);fill-rule:nonzero;"/>
    </g>
    <g transform="matrix(1,0,0,1,71.7704,51.3301)">
        <path d="M0,-1.543C0,-0.439 -3.461,1.542 -4.896,2.316C-5.278,2.522 -5.738,2.522 -6.12,2.316C-7.556,1.542 -11.016,-0.439 -11.016,-1.543C-11.016,-2.936 -8.55,-4.065 -5.508,-4.065C-2.466,-4.065 0,-2.936 0,-1.543" style="fill:rgb(201,149,166);fill-rule:nonzero;"/>
    </g>
    <g transform="matrix(1,0,0,1,62.5267,51.3446)">
        <path d="M0,-1.623C0.512,-1.137 1.708,-0.272 3.735,0.83C5.764,-0.273 6.958,-1.138 7.471,-1.623C6.966,-1.984 5.679,-2.495 3.735,-2.495C1.792,-2.495 0.504,-1.984 0,-1.623M3.735,4.041C3.266,4.041 2.798,3.926 2.371,3.695C-2.663,0.983 -3.358,-0.432 -3.358,-1.557C-3.358,-3.937 -0.374,-5.664 3.735,-5.664C7.845,-5.664 10.828,-3.937 10.828,-1.557C10.828,-0.434 10.135,0.98 5.1,3.696C4.673,3.926 4.204,4.041 3.735,4.041" style="fill:rgb(47,73,157);fill-rule:nonzero;"/>
    </g>
    <g transform="matrix(1,0,0,1,66.3734,62.8876)">
        <path d="M0,17.004C-5.962,17.004 -10.701,12.264 -10.701,6.438L-10.701,1.584C-10.701,0.709 -9.993,0 -9.117,0C-8.241,0 -7.532,0.709 -7.532,1.584L-7.532,6.438C-7.532,10.517 -4.213,13.835 -0.135,13.835C4.079,13.835 7.398,10.517 7.398,6.438L7.398,1.972C7.398,1.097 8.107,0.388 8.982,0.388C9.858,0.388 10.567,1.097 10.567,1.972L10.567,6.438C10.567,12.264 5.827,17.004 0,17.004" style="fill:rgb(47,73,157);fill-rule:nonzero;"/>
    </g>
    <g transform="matrix(0,-1,-1,0,65.8415,67.2878)">
        <path d="M-5.722,-6.651C-7.707,-6.651 -9.316,-3.881 -9.316,-0.465C-9.316,2.952 -7.707,5.722 -5.722,5.722C-3.737,5.722 -3.057,2.952 -3.057,-0.465C-3.057,-3.881 -3.737,-6.651 -5.722,-6.651" style="fill:rgb(243,146,140);fill-rule:nonzero;"/>
    </g>
</svg>
