<?xml version="1.0" encoding="UTF-8" standalone="no"?>
<!DOCTYPE svg PUBLIC "-//W3C//DTD SVG 1.1//EN" "http://www.w3.org/Graphics/SVG/1.1/DTD/svg11.dtd">
<svg width="100%" height="100%" viewBox="0 0 137 116" version="1.1" xmlns="http://www.w3.org/2000/svg" xmlns:xlink="http://www.w3.org/1999/xlink" xml:space="preserve" xmlns:serif="http://www.serif.com/" style="fill-rule:evenodd;clip-rule:evenodd;stroke-linejoin:round;stroke-miterlimit:2;">
    <g transform="matrix(0.953955,0.299951,0.299951,-0.953955,13.9367,25.381)">
        <path d="M4.163,-1.716C-7.306,6.057 -7.861,17.003 -3.264,21.509C-1.658,23.083 1.217,23.739 4.163,22.978C15.321,20.092 22.264,20.57 22.264,20.57C20.023,10.134 14.457,2.333 4.163,-1.716" style="fill:white;fill-rule:nonzero;"/>
    </g>
    <g transform="matrix(1,0,0,1,17.3944,-0.612263)">
        <path d="M0,32.142C-0.961,32.142 -1.913,31.719 -2.559,30.907C-7.604,24.545 -9.708,17.284 -8.335,10.985C-7.403,6.717 -4.95,3.292 -1.601,1.587C1.521,0 5.633,0.371 9.132,2.553C18.26,8.247 24.658,9.862 24.721,9.878C26.467,10.308 27.541,12.071 27.116,13.818C26.692,15.564 24.943,16.643 23.187,16.221C22.891,16.149 15.789,14.397 5.679,8.09C3.93,6.999 2.21,6.969 1.357,7.404C-0.215,8.204 -1.454,10.063 -1.96,12.376C-2.914,16.754 -1.27,22.031 2.555,26.852C3.674,28.264 3.438,30.316 2.026,31.435C1.426,31.911 0.711,32.142 0,32.142" style="fill:rgb(47,73,157);fill-rule:nonzero;"/>
    </g>
    <g transform="matrix(1,0,0,1,17.3944,-0.612263)">
        <path d="M0,32.142C-0.961,32.142 -1.913,31.719 -2.559,30.907C-7.604,24.545 -9.708,17.284 -8.335,10.985C-7.403,6.717 -4.95,3.292 -1.601,1.587C1.521,0 5.633,0.371 9.132,2.553C18.362,8.311 25.896,10.563 25.972,10.585C27.699,11.093 28.69,12.905 28.183,14.633C27.678,16.362 25.864,17.354 24.142,16.848C23.802,16.75 15.722,14.356 5.679,8.09C3.93,6.999 2.21,6.969 1.357,7.404C-0.215,8.204 -1.454,10.063 -1.96,12.376C-2.914,16.754 -1.27,22.031 2.555,26.852C3.674,28.264 3.438,30.316 2.026,31.435C1.426,31.911 0.711,32.142 0,32.142" style="fill:rgb(47,73,157);fill-rule:nonzero;"/>
    </g>
    <g transform="matrix(1,0,0,1,18.9919,18.9908)">
        <path d="M0,-15.047C0,-15.047 1.527,-1.285 9.726,0L21.139,-5.879L0,-15.047Z" style="fill:rgb(47,73,157);fill-rule:nonzero;"/>
    </g>
    <g transform="matrix(0.953955,-0.299951,-0.299951,-0.953955,122.504,25.381)">
        <path d="M-4.163,-1.716C7.306,6.057 7.861,17.003 3.264,21.509C1.658,23.083 -1.217,23.739 -4.163,22.978C-15.321,20.092 -22.264,20.57 -22.264,20.57C-20.023,10.134 -14.457,2.333 -4.163,-1.716" style="fill:white;fill-rule:nonzero;"/>
    </g>
    <g transform="matrix(1,0,0,1,119.046,-0.612263)">
        <path d="M0,32.142C-0.711,32.142 -1.426,31.911 -2.026,31.435C-3.438,30.316 -3.674,28.264 -2.555,26.852C1.27,22.031 2.914,16.754 1.96,12.376C1.454,10.063 0.215,8.204 -1.359,7.404C-2.211,6.97 -3.929,6.998 -5.678,8.09C-15.789,14.397 -22.891,16.149 -23.187,16.221C-24.933,16.641 -26.702,15.564 -27.122,13.81C-27.543,12.061 -26.467,10.302 -24.72,9.878C-24.589,9.845 -18.211,8.217 -9.132,2.554C-5.633,0.371 -1.521,0 1.601,1.587C4.95,3.292 7.403,6.717 8.335,10.985C9.708,17.284 7.604,24.545 2.559,30.907C1.913,31.719 0.961,32.142 0,32.142" style="fill:rgb(47,73,157);fill-rule:nonzero;"/>
    </g>
    <g transform="matrix(1,0,0,1,119.046,-0.612263)">
        <path d="M0,32.142C-0.711,32.142 -1.426,31.911 -2.026,31.435C-3.438,30.316 -3.674,28.264 -2.555,26.852C1.27,22.031 2.914,16.754 1.96,12.376C1.454,10.063 0.215,8.204 -1.359,7.404C-2.211,6.97 -3.929,6.998 -5.678,8.09C-15.722,14.356 -23.801,16.75 -24.14,16.848C-25.862,17.353 -27.68,16.36 -28.185,14.63C-28.69,12.902 -27.697,11.091 -25.97,10.585C-25.896,10.563 -18.362,8.311 -9.132,2.554C-5.633,0.371 -1.521,0 1.601,1.587C4.95,3.292 7.403,6.717 8.335,10.985C9.708,17.284 7.604,24.545 2.559,30.907C1.913,31.719 0.961,32.142 0,32.142" style="fill:rgb(47,73,157);fill-rule:nonzero;"/>
    </g>
    <g transform="matrix(1,0,0,1,117.449,18.9908)">
        <path d="M0,-15.047C0,-15.047 -1.527,-1.285 -9.726,0L-21.139,-5.879L0,-15.047Z" style="fill:rgb(47,73,157);fill-rule:nonzero;"/>
    </g>
    <g transform="matrix(0,-1,-1,0,75.0961,-5.09186)">
        <path d="M-71.833,-58.082C-100.668,-58.082 -117.538,-28.999 -117.538,6.876C-117.538,42.751 -100.668,71.833 -71.833,71.833C-42.998,71.833 -12.377,42.751 -12.377,6.876C-12.377,-28.999 -42.998,-58.082 -71.833,-58.082" style="fill:white;fill-rule:nonzero;"/>
    </g>
    <g transform="matrix(1,0,0,1,58.9746,77.7001)">
        <path d="M0,-10.551L9.317,-14.245L18.634,-10.151L18.634,-5.553C18.634,-0.446 14.494,3.694 9.387,3.694L9.247,3.694C4.14,3.694 0,-0.446 0,-5.553L0,-10.551Z" style="fill:rgb(47,73,157);fill-rule:nonzero;"/>
    </g>
    <g transform="matrix(1,0,0,1,120.255,22.0031)">
        <path d="M0,32.919C-0.775,39.574 -6.721,45.27 -15.005,46.879C-18.476,41.736 -36.635,30.746 -52.129,31.476C-61.299,31.061 -77.67,35.431 -89.12,47.207C-94.56,45.71 -104.258,47.637 -104.258,32.919C-104.258,9.816 -80.919,-14.718 -52.129,-14.718C-23.339,-14.718 2.671,9.971 0,32.919" style="fill:rgb(248,189,33);fill-rule:nonzero;"/>
    </g>
    <g transform="matrix(1,0,0,1,-259.539,-428.523)">
        <g opacity="0.62">
            <g transform="matrix(1,0,0,1,321.345,469.16)">
                <path d="M0,9.055C0,7.716 4.03,-1.87 5.702,-2.809C6.146,-3.058 6.682,-3.058 7.127,-2.809C8.799,-1.87 12.829,7.716 12.829,9.055C12.829,10.744 9.957,12.113 6.414,12.113C2.872,12.113 0,10.744 0,9.055" style="fill:rgb(230,133,79);fill-rule:nonzero;"/>
            </g>
        </g>
    </g>
    <g transform="matrix(1,0,0,1,68.22,109.183)">
        <path d="M0,-98.636C-28.53,-98.636 -61.695,-74.089 -61.695,-42.442C-61.695,-17.453 -36.325,0 0,0C36.325,0 61.695,-17.453 61.695,-42.442C61.695,-74.089 28.53,-98.636 0,-98.636M0,6.525C-40.168,6.525 -68.22,-13.611 -68.22,-42.442C-68.22,-72.049 -39.045,-105.161 0,-105.161C39.045,-105.161 68.22,-72.049 68.22,-42.442C68.22,-13.611 40.168,6.525 0,6.525" style="fill:rgb(47,73,157);fill-rule:nonzero;"/>
    </g>
    <g transform="matrix(1,0,0,1,108.521,57.7102)">
        <path d="M0,-19.957C7.462,-13.19 3.578,-1.039 -6.471,0.065C-8.014,0.008 -11.076,0.883 -11.143,-1.41C-11.107,-1.924 -10.795,-2.309 -10.39,-2.56C-7.721,-4.292 -4.305,-6.035 -3.125,-8.956C-1.915,-11.828 -2.375,-15.258 -2.362,-18.646C-2.545,-19.943 -0.987,-20.84 0,-19.957" style="fill:rgb(47,73,157);fill-rule:nonzero;"/>
    </g>
    <g transform="matrix(-0.945602,-0.325325,-0.325325,0.945602,111.954,70.2984)">
        <path d="M7.887,-32.958C-9.299,-25.848 -13.249,-3.525 7.261,1.987C7.86,2.138 8.306,1.365 7.887,0.922C-4.871,-12.029 -0.692,-18.674 8.622,-31.964C9.034,-32.448 8.468,-33.214 7.887,-32.958" style="fill:rgb(47,73,157);fill-rule:nonzero;"/>
    </g>
    <g transform="matrix(1,0,0,1,28.9058,55.4858)">
        <path d="M0,-16.422C-0.397,-7.412 -0.061,-4.898 8.028,-0.336C9.252,0.312 8.883,2.22 7.498,2.314C-0.546,3.351 -8.021,-3.358 -5.941,-11.647C-5.562,-13.511 -2.708,-19.773 -0.352,-17.596C-0.05,-17.261 0.022,-16.84 0,-16.422" style="fill:rgb(47,73,157);fill-rule:nonzero;"/>
    </g>
    <g transform="matrix(1,0,0,1,22.2188,70.1344)">
        <path d="M0,-32.866C-4.491,-17.246 -6.258,-9.622 10.005,-1.53C10.553,-1.252 10.366,-0.363 9.759,-0.319C-4.654,1.13 -13.496,-11.299 -7.581,-24.445C-6.007,-27.964 -3.898,-31.089 -1.017,-33.567C-0.543,-33.996 0.231,-33.457 0,-32.866" style="fill:rgb(47,73,157);fill-rule:nonzero;"/>
    </g>
    <g transform="matrix(-0.0231076,0.999733,0.999733,0.0231076,63.995,-10.3882)">
        <path d="M30.596,-20.309C19.347,-6.279 19.62,15.372 29.404,30.092C29.767,30.67 30.715,30.302 30.596,29.631C28.143,13.139 27.79,-3.343 31.709,-19.681C31.93,-20.324 31.029,-20.844 30.596,-20.309" style="fill:rgb(47,73,157);fill-rule:nonzero;"/>
    </g>
    <g transform="matrix(-0.036863,0.99932,0.99932,0.036863,65.0285,9.48772)">
        <path d="M19.771,-11.561C10.771,-4.187 10.685,11.126 18.6,19.304C19.017,19.754 19.81,19.399 19.771,18.794C19.229,8.717 19.12,-0.812 20.833,-10.849C20.996,-11.446 20.258,-11.952 19.771,-11.561" style="fill:rgb(47,73,157);fill-rule:nonzero;"/>
    </g>
    <g transform="matrix(1,0,0,1,60.6991,51.3217)">
        <path d="M0,16.688C-3.248,16.688 -6.562,14.988 -9.864,11.622C-10.495,10.979 -10.486,9.946 -9.842,9.315C-9.202,8.684 -8.169,8.693 -7.535,9.338C-4.617,12.312 -1.851,13.667 0.682,13.387C3.353,13.083 5.193,10.965 5.824,10.128L5.824,1.632C5.824,0.731 6.554,0 7.456,0C8.357,0 9.087,0.731 9.087,1.632L9.087,11.099L8.846,11.491C8.733,11.678 5.995,16.065 1.051,16.628C0.703,16.668 0.35,16.688 0,16.688" style="fill:rgb(47,73,157);fill-rule:nonzero;"/>
    </g>
    <g transform="matrix(1,0,0,1,76.3702,51.3217)">
        <path d="M0,17.087C-0.08,17.087 -0.159,17.085 -0.239,17.084C-5.651,16.937 -9.253,11.783 -9.402,11.563L-9.689,11.146L-9.689,1.632C-9.689,0.731 -8.959,0 -8.058,0C-7.156,0 -6.426,0.731 -6.426,1.632L-6.426,10.09C-5.62,11.089 -3.189,13.749 -0.135,13.823C2.202,13.88 4.561,12.388 6.868,9.388C7.417,8.674 8.44,8.539 9.155,9.091C9.871,9.639 10.003,10.664 9.455,11.378C6.54,15.167 3.36,17.087 0,17.087" style="fill:rgb(47,73,157);fill-rule:nonzero;"/>
    </g>
    <g transform="matrix(1,0,0,1,68.6008,86.2691)">
        <path d="M0,6.364C-0.043,6.364 -0.086,6.364 -0.129,6.363C-3.946,6.292 -6.656,3.001 -6.769,2.861C-7.336,2.161 -7.228,1.133 -6.527,0.566C-5.831,0 -4.806,0.107 -4.238,0.803C-4.218,0.825 -2.343,3.069 -0.054,3.101C1.251,3.113 2.453,2.431 3.655,1.053C4.247,0.375 5.278,0.306 5.955,0.897C6.634,1.49 6.704,2.521 6.111,3.199C4.279,5.3 2.222,6.364 0,6.364" style="fill:rgb(47,73,157);fill-rule:nonzero;"/>
    </g>
    <g transform="matrix(0,-1,-1,0,46.8699,38.735)">
        <path d="M-6.402,-6.402C-10.958,-6.402 -14.651,-3.536 -14.651,0C-14.651,3.535 -10.958,6.402 -6.402,6.402C-1.846,6.402 1.847,3.535 1.847,0C1.847,-3.536 -1.846,-6.402 -6.402,-6.402" style="fill:rgb(47,73,157);fill-rule:nonzero;"/>
    </g>
    <g transform="matrix(0,-1,-1,0,89.7596,38.735)">
        <path d="M-6.402,-6.402C-10.958,-6.402 -14.651,-3.536 -14.651,0C-14.651,3.535 -10.958,6.402 -6.402,6.402C-1.846,6.402 1.847,3.535 1.847,0C1.847,-3.536 -1.846,-6.402 -6.402,-6.402" style="fill:rgb(47,73,157);fill-rule:nonzero;"/>
    </g>
    <g transform="matrix(1,0,0,1,73.8913,52.848)">
        <path d="M0,-1.589C0,-0.452 -3.563,1.587 -5.041,2.384C-5.434,2.596 -5.908,2.596 -6.301,2.384C-7.779,1.587 -11.342,-0.452 -11.342,-1.589C-11.342,-3.023 -8.803,-4.185 -5.671,-4.185C-2.539,-4.185 0,-3.023 0,-1.589" style="fill:rgb(201,149,166);fill-rule:nonzero;"/>
    </g>
    <g transform="matrix(1,0,0,1,64.3744,52.8625)">
        <path d="M0,-1.671C0.527,-1.171 1.759,-0.28 3.846,0.855C5.934,-0.281 7.164,-1.172 7.691,-1.671C7.172,-2.042 5.847,-2.569 3.846,-2.569C1.845,-2.569 0.519,-2.042 0,-1.671M3.846,4.16C3.363,4.16 2.88,4.042 2.441,3.804C-2.742,1.012 -3.457,-0.445 -3.457,-1.603C-3.457,-4.053 -0.386,-5.831 3.846,-5.831C8.077,-5.831 11.148,-4.053 11.148,-1.603C11.148,-0.447 10.435,1.009 5.251,3.805C4.811,4.042 4.328,4.16 3.846,4.16" style="fill:rgb(47,73,157);fill-rule:nonzero;"/>
    </g>
    <g transform="matrix(1,0,0,1,68.3347,64.7464)">
        <path d="M0,17.507C-6.138,17.507 -11.018,12.627 -11.018,6.629L-11.018,1.631C-11.018,0.73 -10.288,0 -9.386,0C-8.485,0 -7.755,0.73 -7.755,1.631L-7.755,6.629C-7.755,10.828 -4.338,14.244 -0.139,14.244C4.199,14.244 7.617,10.828 7.617,6.629L7.617,2.031C7.617,1.13 8.346,0.4 9.248,0.4C10.15,0.4 10.879,1.13 10.879,2.031L10.879,6.629C10.879,12.627 6,17.507 0,17.507" style="fill:rgb(47,73,157);fill-rule:nonzero;"/>
    </g>
    <g transform="matrix(0,-1,-1,0,67.7868,69.2773)">
        <path d="M-5.891,-6.848C-7.935,-6.848 -9.592,-3.996 -9.592,-0.479C-9.592,3.039 -7.935,5.891 -5.891,5.891C-3.847,5.891 -3.147,3.039 -3.147,-0.479C-3.147,-3.996 -3.847,-6.848 -5.891,-6.848" style="fill:rgb(243,146,140);fill-rule:nonzero;"/>
    </g>
</svg>
