<?xml version="1.0" encoding="UTF-8" standalone="no"?>
<!DOCTYPE svg PUBLIC "-//W3C//DTD SVG 1.1//EN" "http://www.w3.org/Graphics/SVG/1.1/DTD/svg11.dtd">
<svg width="100%" height="100%" viewBox="0 0 210 237" version="1.1" xmlns="http://www.w3.org/2000/svg" xmlns:xlink="http://www.w3.org/1999/xlink" xml:space="preserve" xmlns:serif="http://www.serif.com/" style="fill-rule:evenodd;clip-rule:evenodd;stroke-linejoin:round;stroke-miterlimit:2;">
    <g transform="matrix(-1,0,0,1,202.692,173.521)">
        <path d="M0,-103.808C2.791,-116.719 8.372,-128.92 16.672,-139.195C24.847,-149.316 36.536,-159.538 51.479,-161.94C83.124,-167.024 110.801,-155.744 125.084,-128.992C139.367,-102.241 136.416,-76.027 115.355,-63.484C115.355,-63.484 127.121,-46.522 128.168,-26.841C128.168,-26.841 164.363,10.88 136.314,48.151C136.314,48.151 142.219,55.788 124.935,59.502C107.651,63.216 87.34,58.119 87.34,58.119C87.34,58.119 68.136,60.897 47.953,58.608C47.953,58.608 17.857,62.458 11.21,57.865C4.562,53.272 13.348,45.036 13.348,45.036C13.348,45.036 -16.004,27.253 3.224,-9.573C3.224,-9.573 -7.029,-35.852 15.809,-52.206L18.462,-62.275C18.462,-62.275 -3.533,-77.065 -1.273,-97.92L0,-103.808Z" style="fill:white;fill-rule:nonzero;"/>
    </g>
    <g transform="matrix(-1,0,0,1,65.048,186.878)">
        <path d="M0,23.64C20.338,24.815 42.341,18.736 42.333,-4.27C43.062,-16.62 61.644,-16.217 61.754,-3.814C60.621,20.721 43.458,36.183 18.675,39.263C11.739,40.167 4.811,40.26 -2.115,39.465C-13.129,37.815 -11.087,22.631 0,23.64" style="fill:rgb(248,189,33);fill-rule:nonzero;"/>
    </g>
    <g transform="matrix(-1,0,0,1,66.097,186.498)">
        <path d="M0,27.265C-3.333,27.265 -4.801,29.453 -5.04,31.44C-5.296,33.567 -4.259,36.036 -0.578,36.587C5.834,37.321 12.558,37.255 19.299,36.377C43.435,33.377 58.452,18.477 59.508,-3.491C59.427,-7.922 56.105,-9.58 53.269,-9.651C50.388,-9.728 46.981,-8.226 46.676,-3.784C46.655,4.863 43.8,11.933 38.189,17.231C27.565,27.262 10.245,27.853 0.86,27.308L0.75,27.3C0.491,27.277 0.24,27.265 0,27.265M8.422,43.677C5.104,43.677 1.81,43.491 -1.441,43.117C-8.986,41.989 -12.223,35.997 -11.58,30.653C-10.927,25.216 -6.305,20.073 1.289,20.734C9.626,21.215 24.858,20.759 33.666,12.441C37.93,8.415 40.091,2.921 40.088,-3.889L40.095,-4.085C40.578,-12.269 47.145,-16.412 53.434,-16.237C59.673,-16.08 66.024,-11.643 66.097,-3.464L66.093,-3.283C64.935,21.832 47.323,39.533 20.131,42.912C16.22,43.422 12.306,43.677 8.422,43.677" style="fill:rgb(47,73,157);fill-rule:nonzero;"/>
    </g>
    <g transform="matrix(-1,0,0,1,180.827,144.784)">
        <path d="M0,61.398C-2.967,56.96 -6.047,52.651 -7.864,47.663C-9.344,43.604 -11.497,41.152 -11.617,36.828C-11.702,33.778 -11.791,28.531 -7.857,28.434C-5.392,28.374 -3.174,29.749 -0.854,30.341C2.082,31.089 5.208,31.258 8.21,30.784C14.245,29.831 19.66,26.282 21.927,20.717C24.501,14.4 22.003,7.206 19.535,1.213C18.873,-0.394 18.147,-1.977 17.366,-3.535C16.647,-4.968 15.929,-6.455 14.965,-7.754C12.896,-10.542 9.724,-12.203 6.947,-14.244C5.543,-15.275 4.21,-16.414 3.164,-17.79C2.109,-19.178 1.239,-20.683 0.343,-22.165C-0.862,-24.159 -2.17,-25.936 -3.897,-27.331C-4.28,-23.506 -6.52,-24.514 -17.795,-10.917C-29.322,2.984 -17.199,21.763 -17.199,21.763C-17.199,21.763 -38.73,48.652 -7.093,74.597C-7.093,74.597 -14.029,80.56 -10.848,85.072C-8.271,88.729 17.17,87.585 24.354,86.794C16.893,79.401 5.81,70.089 0,61.398" style="fill:rgb(248,189,33);fill-rule:nonzero;"/>
    </g>
    <g transform="matrix(-1,0,0,1,64.4731,119.63)">
        <path d="M0,102.042C20.194,59.256 -10.051,27.05 -10.051,27.05C-15.155,1.203 -19.561,-12.242 -19.561,-12.242C-31.556,-3.929 -40.154,0.739 -52.99,3.046C-55.891,5.07 -62.115,8.065 -64.857,11.752C-68.298,16.382 -77.306,25.318 -79.923,30.434C-82.182,34.851 -82.33,38.943 -81.75,43.978C-81.462,46.475 -79.623,49.72 -77.847,51.551C-76.22,53.229 -74.418,55.416 -72.099,56.094C-68.012,57.289 -52.614,56.818 -52.74,57.226C-62.863,89.971 -52.395,106.353 -48.912,111.333C-48.483,111.279 -41.181,113.102 -40.751,113.045C-40.751,113.045 -31.406,114.284 -14.536,113.154C7.845,111.655 0,102.042 0,102.042" style="fill:rgb(248,189,33);fill-rule:nonzero;"/>
    </g>
    <g transform="matrix(-1,0,0,1,111.026,230.145)">
        <path d="M0,-2.435C0,-2.435 27.862,2.462 44.648,-8.473C44.648,-8.473 49.405,-3.198 45.307,-0.843C35.827,4.604 1.34,6.038 0,-2.435" style="fill:white;fill-rule:nonzero;"/>
    </g>
    <g transform="matrix(-1,0,0,1,195.064,228.646)">
        <path d="M0,-2.112C0,-2.112 24.786,2.462 41.572,-8.473C41.572,-8.473 46.999,-5.004 37.407,0.243C27.815,5.49 1.34,6.361 0,-2.112" style="fill:white;fill-rule:nonzero;"/>
    </g>
    <g transform="matrix(-1,0,0,1,139.901,185.114)">
        <path d="M0,-45.768C0,-45.768 -2.518,-33.021 -3.235,-29.811C-3.235,-29.811 -17.027,-9.922 26.672,-11.331C26.672,-11.331 2.089,0 -8.013,-12.253C-18.114,-24.507 -6.728,-32.323 -6.728,-32.323L0,-45.768Z" style="fill:white;fill-rule:nonzero;"/>
    </g>
    <g transform="matrix(-1,0,0,1,161.159,183.217)">
        <path d="M0,-43.871C0,-43.871 -0.602,-35.81 -0.756,-32.535C-0.756,-32.535 7.03,-5.209 -34.945,-16.648C-34.945,-16.648 -14.116,0 -1.09,-9.546C11.937,-19.092 2.968,-29.291 2.968,-29.291L0,-43.871Z" style="fill:white;fill-rule:nonzero;"/>
    </g>
    <g transform="matrix(-1,0,0,1,84.4735,40.4479)">
        <path d="M0,19.531C-0.778,26.73 8.569,42.555 -20.259,49.828C-36.697,29.174 -52.117,24.475 -70.329,23.541C-79.542,23.091 -96.921,31.407 -108.425,44.146C-113.89,42.527 -119.207,41.899 -119.207,25.977C-119.207,19.917 -92.749,-30.216 -56.196,-30.265C-32.909,-30.297 -19.962,-23.606 -7.46,-13.199C-1.008,-0.898 -0.544,11.36 0,19.531" style="fill:rgb(248,189,33);fill-rule:nonzero;"/>
    </g>
    <g transform="matrix(-1,0,0,1,464.498,-460.545)">
        <g opacity="0.62">
            <g transform="matrix(1,0,0,1,300.037,517.953)">
                <path d="M0,7.802C0.15,6.315 6.824,-3.767 9.252,-4.575C9.898,-4.79 10.643,-4.715 11.234,-4.375C13.452,-3.099 17.981,8.111 17.832,9.598C17.643,11.474 13.498,12.592 8.574,12.096C3.65,11.6 -0.189,9.678 0,7.802" style="fill:rgb(230,133,79);fill-rule:nonzero;"/>
            </g>
        </g>
    </g>
    <g transform="matrix(-0.95396,0.299935,-0.299935,-0.95396,185.409,23.271)">
        <path d="M3.751,-1.546C-6.583,5.457 -7.084,15.322 -2.942,19.382C-1.494,20.8 1.097,21.393 3.751,20.705C13.805,18.105 20.062,18.535 20.062,18.535C13.032,12.074 13.028,2.103 3.751,-1.546" style="fill:white;fill-rule:nonzero;"/>
    </g>
    <g transform="matrix(-1,0,0,1,182.292,-0.150407)">
        <path d="M0,28.962C-0.866,28.962 -1.724,28.581 -2.305,27.849C-6.851,22.118 -8.748,15.575 -7.511,9.9C-6.672,6.052 -4.46,2.966 -1.442,1.43C1.371,0 5.075,0.333 8.229,2.3C16.454,7.431 22.219,8.886 22.276,8.9C23.85,9.287 24.817,10.877 24.434,12.451C24.051,14.026 22.466,14.999 20.895,14.615C20.626,14.551 14.229,12.973 5.117,7.289C3.538,6.304 1.992,6.278 1.224,6.67C-0.193,7.392 -1.311,9.067 -1.766,11.152C-2.627,15.097 -1.144,19.851 2.302,24.195C3.311,25.467 3.098,27.316 1.826,28.325C1.285,28.754 0.64,28.962 0,28.962" style="fill:rgb(47,73,157);fill-rule:nonzero;"/>
    </g>
    <g transform="matrix(-1,0,0,1,182.292,-0.150407)">
        <path d="M0,28.962C-0.866,28.962 -1.724,28.581 -2.305,27.849C-6.851,22.118 -8.748,15.575 -7.511,9.9C-6.672,6.052 -4.46,2.966 -1.442,1.43C1.371,0 5.075,0.333 8.229,2.3C16.524,7.475 27.142,10.118 27.239,10.14C28.822,10.501 28.876,11.68 28.515,13.263C28.152,14.846 26.58,15.84 24.993,15.475C24.56,15.377 14.243,12.982 5.117,7.289C3.538,6.304 1.992,6.278 1.224,6.67C-0.193,7.392 -1.311,9.067 -1.766,11.152C-2.627,15.097 -1.144,19.851 2.302,24.195C3.311,25.467 3.098,27.316 1.826,28.325C1.285,28.754 0.64,28.962 0,28.962" style="fill:rgb(47,73,157);fill-rule:nonzero;"/>
    </g>
    <g transform="matrix(-1,0,0,1,180.853,17.5128)">
        <path d="M0,-13.559C0,-13.559 1.376,-1.158 8.764,0L19.049,-5.297L0,-13.559Z" style="fill:rgb(47,73,157);fill-rule:nonzero;"/>
    </g>
    <g transform="matrix(-0.968242,-0.250014,0.250014,-0.968242,83.3891,29.5449)">
        <path d="M-3.888,-1.67C8.455,7.665 9.871,20.117 4.482,24.876C2.599,26.539 -0.646,27.106 -3.888,26.085C-16.166,22.219 -25.318,21.935 -25.318,21.935C-15.462,14.525 -10.641,8.093 -3.888,-1.67" style="fill:white;fill-rule:nonzero;"/>
    </g>
    <g transform="matrix(-1,0,0,1,85.4049,-0.685007)">
        <path d="M0,35.902C-0.793,35.902 -1.592,35.644 -2.262,35.113C-3.839,33.862 -4.103,31.569 -2.852,29.993C1.419,24.608 3.256,18.715 2.19,13.825C1.627,11.242 0.24,9.165 -1.516,8.271C-2.473,7.783 -4.39,7.819 -6.341,9.038C-17.401,15.936 -22.837,17.522 -23.421,17.68C-25.363,18.207 -27.364,17.058 -27.891,15.116C-28.416,13.181 -28.482,11.776 -26.551,11.241C-26.42,11.202 -20.262,9.131 -10.2,2.854C-6.293,0.416 -1.7,0 1.789,1.775C5.53,3.678 8.271,7.504 9.311,12.272C10.845,19.307 8.494,27.417 2.858,34.523C2.138,35.429 1.074,35.902 0,35.902" style="fill:rgb(47,73,157);fill-rule:nonzero;"/>
    </g>
    <g transform="matrix(0.650219,-0.759747,0.759747,0.650219,116.561,7.88398)">
        <path d="M-17.237,-26.648C-17.237,-26.648 -19.448,-20.772 -20.855,-15.223C-22.253,-9.706 -22.507,-4.027 -17.237,-1.878L-6.683,3.155L-17.237,-26.648Z" style="fill:rgb(47,73,157);fill-rule:nonzero;"/>
    </g>
    <g transform="matrix(-1,0,0,1,117.001,22.5253)">
        <path d="M0,98.79C51.198,85.88 57.7,43.743 24.039,6.927L22.075,4.815C22.969,3.714 26.923,-0.844 27.881,-2.006C28.612,-2.91 30.177,-2.234 30.014,-1.085L29.248,5.895L28.538,2.31C44.67,17.31 56.703,40.675 50.813,63.049C45.31,85.651 22.132,98.915 0.52,101.511C-1.19,101.7 -1.688,99.251 0,98.79" style="fill:rgb(47,73,157);fill-rule:nonzero;"/>
    </g>
    <g transform="matrix(-1,0,0,1,173.733,9.08469)">
        <path d="M0,110.296C-15.372,104.305 -29.627,91.645 -32.651,74.634C-33.257,71.449 -33.562,68.304 -33.48,65.059C-33.196,59.663 -31.407,54.511 -29.626,49.655C-23.555,34.327 -14.746,19.941 -1.536,9.522C5.217,4.338 13.553,1.175 21.857,0.049C30.024,-1.053 38.124,-0.64 46.334,-0.395C54.774,0.158 63.045,0.627 70.993,4.534C74.739,6.619 71.825,12.17 67.975,10.231C57.762,5.588 45.39,6.108 34.228,5.887C22.896,5.626 11.339,7.643 2.263,14.619C-9.679,23.857 -18.365,37.77 -23.954,51.833C-26.819,58.923 -28.518,66.026 -26.811,73.518C-24.274,88.724 -11.658,99.885 1.833,106.139C4.433,107.413 2.727,111.349 0,110.296" style="fill:rgb(47,73,157);fill-rule:nonzero;"/>
    </g>
    <g transform="matrix(-1,0,0,1,102.535,81.5105)">
        <path d="M0,-24.286C8.622,-17.153 4.902,-4.252 -5.273,-1.263C-7.517,-0.541 -15.62,1.07 -15.202,-2.646C-15.12,-3.241 -14.771,-3.726 -14.291,-4.014C-10.743,-6.301 -6.676,-8.332 -4.62,-11.564C-2.732,-14.736 -3.092,-18.411 -3.043,-22.44C-3.263,-24.136 -1.385,-25.356 0,-24.286" style="fill:rgb(47,73,157);fill-rule:nonzero;"/>
    </g>
    <g transform="matrix(-1,0,0,1,125.916,178.915)">
        <path d="M0,-8.073C-1.678,-5.188 -4.321,-2.659 -2.511,0.809C-2.306,1.345 -2.976,1.848 -3.433,1.517C-6.771,-0.408 -6.15,-5.287 -3.456,-7.494C-2.819,-8.025 -0.426,-9.921 0.093,-8.607C0.145,-8.415 0.098,-8.231 0,-8.073" style="fill:rgb(47,73,157);fill-rule:nonzero;"/>
    </g>
    <g transform="matrix(-1,0,0,1,94.0593,234.791)">
        <path d="M0,-14.861C4.277,-13.716 7.754,-9.144 6.616,-4.605C6.425,-3.346 4.028,0.195 2.888,-1.146C2.694,-1.402 2.702,-1.713 2.806,-1.991C3.595,-4.16 3.74,-5.798 2.771,-7.802C1.807,-9.804 0.252,-11.594 -0.923,-13.631C-1.306,-14.241 -0.682,-15.056 0,-14.861" style="fill:rgb(47,73,157);fill-rule:nonzero;"/>
    </g>
    <g transform="matrix(-1,0,0,1,175.579,231.864)">
        <path d="M0,-8.741C-0.464,-5.511 -1.727,-2.174 1.098,0.311C1.569,0.716 1.169,1.529 0.564,1.374C-3.138,0.774 -4.512,-3.805 -2.928,-6.878C-2.558,-7.614 -1.096,-10.27 -0.117,-9.267C0.004,-9.11 0.03,-8.923 0,-8.741" style="fill:rgb(47,73,157);fill-rule:nonzero;"/>
    </g>
    <g transform="matrix(-1,0,0,1,184.971,230.735)">
        <path d="M0,-8.741C-0.464,-5.511 -1.727,-2.174 1.097,0.311C1.569,0.716 1.169,1.529 0.564,1.374C-3.138,0.774 -4.513,-3.805 -2.928,-6.878C-2.558,-7.614 -1.096,-10.27 -0.117,-9.267C0.004,-9.11 0.03,-8.923 0,-8.741" style="fill:rgb(47,73,157);fill-rule:nonzero;"/>
    </g>
    <g transform="matrix(-1,0,0,1,77.0891,230.603)">
        <path d="M0,-13.022C3.752,-12.018 6.784,-8.015 5.797,-4.036C5.628,-2.932 3.529,0.169 2.531,-1.005C2.361,-1.23 2.367,-1.503 2.459,-1.746C3.145,-3.646 3.287,-5.085 2.428,-6.838C1.584,-8.592 0.221,-10.161 -0.809,-11.946C-1.142,-12.479 -0.597,-13.191 0,-13.022" style="fill:rgb(47,73,157);fill-rule:nonzero;"/>
    </g>
    <g transform="matrix(-1,0,0,1,142.458,171.071)">
        <path d="M0,-8.039C-1.579,-5.201 -4.354,-2.64 -2.67,0.775C-2.47,1.301 -3.131,1.791 -3.576,1.462C-6.808,-0.521 -5.962,-5.263 -3.384,-7.42C-2.761,-7.936 -0.447,-9.83 0.082,-8.562C0.136,-8.375 0.094,-8.194 0,-8.039" style="fill:rgb(47,73,157);fill-rule:nonzero;"/>
    </g>
    <g transform="matrix(-1,0,0,1,161.205,169.81)">
        <path d="M0,-11.068C3.084,-10.019 5.43,-6.533 4.429,-3.235C4.212,-2.29 2.296,0.177 1.497,-0.882C1.371,-1.082 1.393,-1.31 1.485,-1.508C2.182,-3.066 2.334,-4.226 1.71,-5.742C1.152,-7.108 0.095,-8.511 -0.743,-10.195C-1.001,-10.666 -0.499,-11.245 0,-11.068" style="fill:rgb(47,73,157);fill-rule:nonzero;"/>
    </g>
    <g transform="matrix(-1,0,0,1,174.832,179.401)">
        <path d="M0,-11.068C3.084,-10.019 5.43,-6.533 4.429,-3.235C4.212,-2.29 2.296,0.177 1.497,-0.882C1.371,-1.082 1.393,-1.31 1.485,-1.508C2.182,-3.066 2.334,-4.226 1.71,-5.742C1.152,-7.108 0.095,-8.511 -0.743,-10.195C-1.001,-10.666 -0.499,-11.245 0,-11.068" style="fill:rgb(47,73,157);fill-rule:nonzero;"/>
    </g>
    <g transform="matrix(-1,0,0,1,184.338,57.9744)">
        <path d="M0,19.937C-7.633,21.386 -14.546,13.604 -12.288,6.207C-11.919,4.572 -9.249,-1.449 -7.102,0.408C-6.797,0.684 -6.64,1.061 -6.635,1.442C-6.652,4.356 -7.258,7.227 -6.191,9.946C-5.022,13.07 -2.11,14.885 0.499,17.257C1.574,17.973 1.293,19.7 0,19.937" style="fill:rgb(47,73,157);fill-rule:nonzero;"/>
    </g>
    <g transform="matrix(-1,0,0,1,193.13,64.9986)">
        <path d="M0,20.939C-8.1,22.435 -15.702,14.486 -13.083,6.487C-12.691,4.85 -9.641,-1.496 -7.544,0.449C-7.23,0.744 -7.082,1.15 -7.103,1.549C-7.373,4.814 -8.191,8.026 -6.923,11.101C-5.423,14.12 -2.357,15.99 0.463,18.252C1.583,18.91 1.289,20.725 0,20.939" style="fill:rgb(47,73,157);fill-rule:nonzero;"/>
    </g>
    <g transform="matrix(0.903928,-0.427684,0.427684,0.903928,101.038,89.532)">
        <path d="M6.267,-47.282C-18.336,-36.467 -22.226,-6.174 5.356,3.676C6.136,3.945 6.806,2.945 6.267,2.327C-10.916,-17.083 -7.427,-26.506 7.214,-45.958C7.797,-46.583 7.045,-47.639 6.267,-47.282" style="fill:rgb(47,73,157);fill-rule:nonzero;"/>
    </g>
    <g transform="matrix(-1,0,0,1,102.908,171.291)">
        <path d="M0,24.527C6.286,13.775 16.313,4.362 28.595,0.96C37.199,-1.446 46.456,2.509 48.441,11.652C48.638,12.392 47.647,12.918 47.143,12.355C40.185,4.98 33.214,6.435 24.732,10.723C16.573,14.921 9.07,20.578 1.091,25.522C0.469,25.973 -0.398,25.189 0,24.527" style="fill:rgb(47,73,157);fill-rule:nonzero;"/>
    </g>
    <g transform="matrix(-1,0,0,1,91.5552,120.841)">
        <path d="M0,7.3C1.967,3.105 7.007,-0.831 11.796,1.844C12.701,2.42 12.782,3.772 11.963,4.458L9.434,6.609C8.625,6.941 7.308,6.847 6.17,7.136C4.526,7.415 2.691,7.876 0.575,8.079C0.161,8.131 -0.169,7.678 0,7.3" style="fill:rgb(47,73,157);fill-rule:nonzero;"/>
    </g>
    <g transform="matrix(-1,0,0,1,84.0345,189.356)">
        <path d="M0,14.427C5.37,6.983 16.253,-1.231 25.722,4.179C28.524,5.925 31.784,10.11 28.036,12.525C26.728,13.281 25.125,13.069 24.06,12.11C22.738,10.863 21.575,10.077 19.9,9.84C16.086,9.351 11.466,11.033 7.624,12.516C5.389,13.401 3.118,14.407 0.791,15.392C0.219,15.658 -0.371,14.93 0,14.427" style="fill:rgb(47,73,157);fill-rule:nonzero;"/>
    </g>
    <g transform="matrix(-1,0,0,1,34.4768,202.26)">
        <path d="M0,-0.377C2.746,-5.033 9.757,-6.703 14.119,-3.149C16.719,-1.32 19.601,3.577 15.62,5.447C13.626,6.326 11.743,4.777 10.528,3.408C8.915,1.669 7.284,0.676 4.694,0.555C3.483,0.475 2.067,0.54 0.615,0.636C0.091,0.687 -0.284,0.061 0,-0.377" style="fill:rgb(47,73,157);fill-rule:nonzero;"/>
    </g>
    <g transform="matrix(-1,0,0,1,47.2427,214.459)">
        <path d="M0,-5.686C5.732,-11.396 15.189,-7.186 15.54,0.758C15.791,4.098 11.405,5.71 9.424,3.073C8.728,2.286 8.244,1.273 7.805,0.377C6.964,-1.41 6.118,-2.584 4.092,-3.427C3.054,-3.863 1.719,-4.207 0.347,-4.52C-0.174,-4.623 -0.376,-5.317 0,-5.686" style="fill:rgb(47,73,157);fill-rule:nonzero;"/>
    </g>
    <g transform="matrix(-1,0,0,1,84.3255,148.123)">
        <path d="M0,12.433C3.42,8.728 7.475,6.013 10.408,2.253C10.614,1.949 10.545,2.034 10.761,2.226C10.33,0.769 11.162,-0.762 12.619,-1.193C15.21,-1.969 16.715,0.928 16.287,3.106C16.05,4.895 14.931,6.448 13.835,7.536C11.305,9.995 8.371,11.317 5.172,12.374C4.419,12.551 -1.118,14.402 0,12.433" style="fill:rgb(47,73,157);fill-rule:nonzero;"/>
    </g>
    <g transform="matrix(-0.517531,0.855664,-0.855664,-0.517531,187.234,133.846)">
        <path d="M11.965,-4.497C5.518,0.482 1.047,11.308 7.566,18.036C9.758,20.228 13.35,17.591 11.965,14.862C8.502,8.917 10.883,2.527 12.782,-3.889C12.977,-4.367 12.363,-4.823 11.965,-4.497" style="fill:rgb(47,73,157);fill-rule:nonzero;"/>
    </g>
    <g transform="matrix(-1,0,0,1,115.14,135.306)">
        <path d="M0,16.137C-6.42,11.731 -12.608,6.239 -20.496,6.206C-22.015,6.207 -23.247,4.976 -23.248,3.457C-22.966,-0.875 -16.041,0.369 -13.462,1.288C-8.936,2.955 -5.475,6.162 -2.628,9.807C-2.129,10.444 2.639,17.012 0,16.137" style="fill:rgb(47,73,157);fill-rule:nonzero;"/>
    </g>
    <g transform="matrix(-1,0,0,1,190.848,154.498)">
        <path d="M0,-13.934C-4.252,-10.234 -6.729,-6.478 -7.829,-1.232C-8.276,0.171 -9.776,0.947 -11.179,0.5C-14.136,-0.562 -13.057,-4.807 -12.171,-7.056C-10.186,-11.723 -5.292,-14.823 -0.308,-14.875C0.18,-14.881 0.389,-14.215 0,-13.934" style="fill:rgb(47,73,157);fill-rule:nonzero;"/>
    </g>
    <g transform="matrix(-1,0,0,1,103.812,160.55)">
        <path d="M0,-16.131C4.968,-15.836 9.694,-12.48 11.409,-7.715C12.364,-5.179 12.939,0.033 9.01,-0.173C7.686,-0.323 6.825,-1.392 6.628,-2.612C5.887,-7.736 3.52,-11.4 -0.355,-15.207C-0.732,-15.51 -0.481,-16.164 0,-16.131" style="fill:rgb(47,73,157);fill-rule:nonzero;"/>
    </g>
    <g transform="matrix(-1,0,0,1,128.829,200.401)">
        <path d="M0,-8.942C-6.032,-0.894 -16.094,2.939 -25.74,4.429C-35.377,1.476 -45.87,-2.358 -50.865,-11.969C-51.226,-12.606 -50.466,-13.371 -49.83,-13.011C-47.662,-11.866 -45.631,-10.748 -43.574,-9.79C-37.226,-6.678 -30.778,-5.596 -24.052,-3.196L-25.962,-3.398C-23.859,-3.734 -21.744,-4.014 -19.656,-4.437C-13.282,-5.673 -6.995,-7.436 -1.001,-10.028C-0.335,-10.429 0.468,-9.57 0,-8.942" style="fill:rgb(47,73,157);fill-rule:nonzero;"/>
    </g>
    <g transform="matrix(-1,0,0,1,136.209,219.322)">
        <path d="M0,-5.668C-2.855,-1.34 -7.834,1.232 -12.886,1.972C-17.942,0.911 -22.654,-2.295 -25.059,-6.917C-25.237,-7.25 -24.846,-7.64 -24.516,-7.461C-23.418,-6.908 -22.426,-6.301 -21.407,-5.767C-18.486,-4.189 -15.526,-2.899 -12.324,-2.066L-13.102,-2.107C-10.967,-2.413 -8.87,-2.888 -6.812,-3.594C-4.718,-4.271 -2.639,-5.185 -0.543,-6.217C-0.204,-6.432 0.222,-6.003 0,-5.668" style="fill:rgb(47,73,157);fill-rule:nonzero;"/>
    </g>
    <g transform="matrix(-1,0,0,1,129.931,134.399)">
        <path d="M0,-11.068C-2.054,-8.81 -4.225,-6.453 -6.723,-4.543C-10.677,-1.435 -17.822,2.016 -22.737,-1.795C-26.853,-5.052 -29.289,-8.596 -32.711,-12.538C-32.846,-12.704 -32.821,-12.949 -32.655,-13.084C-27.843,-12.68 -23.566,-8.869 -19.69,-6.585C-18.674,-6.045 -18.17,-5.887 -17.075,-6C-14.659,-6.296 -11.912,-7.389 -9.143,-8.6C-7.574,-9.273 -4.128,-10.835 -2.537,-11.36C-1.567,-11.599 -0.723,-12.145 0.338,-11.718C0.756,-11.503 0.423,-10.844 0,-11.068" style="fill:rgb(47,73,157);fill-rule:nonzero;"/>
    </g>
    <g transform="matrix(-1,0,0,1,208.139,193.95)">
        <path d="M0,2.002C4.444,-6.567 15.936,-3.29 18.792,4.838C19.105,5.858 19.421,6.852 19.528,7.929C19.559,8.244 19.329,8.524 19.015,8.555C18.879,8.569 18.756,8.532 18.645,8.467C16.916,7.463 15.484,6.316 13.974,5.177C11.277,3.353 9.122,1.856 5.872,1.857C4.343,1.816 2.546,2.205 0.648,2.753C0.217,2.893 -0.199,2.404 0,2.002" style="fill:rgb(47,73,157);fill-rule:nonzero;"/>
    </g>
    <g transform="matrix(-1,0,0,1,171.719,20.6257)">
        <path d="M0,8.236C5.865,-0.116 16.686,-4.14 26.742,-3.301C36.737,-2.388 46.023,2.986 52.111,10.913C52.586,11.483 51.946,12.376 51.258,12.109C48.949,11.298 46.849,10.284 44.761,9.355C29.728,2.865 16.152,2.174 1.027,9.32C0.361,9.746 -0.479,8.879 0,8.236" style="fill:rgb(47,73,157);fill-rule:nonzero;"/>
    </g>
    <g transform="matrix(-1,0,0,1,165.458,30.8492)">
        <path d="M0,9.413C3.969,-1.427 19.219,-0.985 26.418,6.271C27.39,7.297 28.314,8.353 29.075,9.567C29.317,9.952 29.2,10.459 28.816,10.701C28.644,10.809 28.454,10.84 28.264,10.821C23.919,10.409 19.969,9.276 15.749,8.747C10.648,8.212 6.257,8.545 1.171,10.34C0.56,10.677 -0.227,10.095 0,9.413" style="fill:rgb(47,73,157);fill-rule:nonzero;"/>
    </g>
    <g transform="matrix(-0.0519893,-0.998648,0.998648,-0.0519893,173.308,52.3511)">
        <path d="M-6.396,-6.072C-11.131,-6.072 -14.969,-3.204 -14.969,0.333C-14.969,3.871 -11.131,6.738 -6.396,6.738C-1.661,6.738 2.176,3.87 2.176,0.333C2.176,-3.205 -1.662,-6.072 -6.396,-6.072" style="fill:rgb(47,73,157);fill-rule:nonzero;"/>
    </g>
    <g transform="matrix(-0.0519842,-0.998648,0.998648,-0.0519842,125.622,52.0439)">
        <path d="M-6.705,-6.364C-11.427,-6.364 -15.255,-3.357 -15.255,0.35C-15.255,4.058 -11.426,7.064 -6.705,7.063C-1.983,7.064 1.846,4.057 1.846,0.349C1.845,-3.359 -1.983,-6.365 -6.705,-6.364" style="fill:rgb(47,73,157);fill-rule:nonzero;"/>
    </g>
    <g transform="matrix(-1,0,0,1,148.735,69.0976)">
        <path d="M0,-2.017C0,-0.643 -5.576,1.919 -7.474,2.883C-7.98,3.139 -8.588,3.139 -9.094,2.883C-10.992,1.919 -14.571,-0.643 -14.571,-2.017C-14.571,-3.751 -11.309,-5.156 -7.285,-5.156C-3.262,-5.156 0,-3.751 0,-2.017" style="fill:rgb(201,149,166);fill-rule:nonzero;"/>
    </g>
    <g transform="matrix(-1,0,0,1,161.071,69.0108)">
        <path d="M0,-1.908C0.693,-1.106 2.488,0.284 4.053,1.1L4.803,0.728C5.824,0.223 8.555,-1.124 9.858,-2.058C9.095,-2.488 7.501,-3.036 5.049,-3.036C2.301,-3.036 0.63,-2.346 0,-1.908M3.944,1.154C3.943,1.155 3.942,1.155 3.941,1.156L3.944,1.154ZM4.052,5.195C3.458,5.195 2.863,5.057 2.321,4.782C2.257,4.749 -4.269,1.399 -4.269,-1.93C-4.269,-4.975 -0.438,-7.103 5.049,-7.103C10.536,-7.103 14.369,-4.975 14.369,-1.93C14.369,0.197 12.079,1.671 6.602,4.374L5.782,4.782C5.24,5.057 4.646,5.195 4.052,5.195" style="fill:rgb(47,73,157);fill-rule:nonzero;"/>
    </g>
    <g transform="matrix(-1,0,0,1,143.768,73.1427)">
        <path d="M0,14.121C-5.971,14.121 -11.093,10.63 -13.347,8.822C-17.995,11.676 -22.18,12.468 -25.8,11.17C-31.349,9.184 -33.2,3.042 -33.276,2.782C-33.585,1.725 -32.978,0.617 -31.921,0.308C-30.866,0 -29.76,0.604 -29.449,1.657C-29.419,1.757 -28.041,6.148 -24.434,7.423C-21.751,8.37 -18.345,7.45 -14.303,4.689L-12.963,3.774L-11.794,4.9C-11.736,4.957 -5.405,10.88 1.34,10.051C5.095,9.586 8.426,7.085 11.24,2.614C11.827,1.682 13.06,1.404 13.99,1.989C14.922,2.576 15.203,3.807 14.616,4.74C11.126,10.282 6.815,13.402 1.803,14.013C1.195,14.087 0.593,14.121 0,14.121" style="fill:rgb(47,73,157);fill-rule:nonzero;"/>
    </g>
    <g transform="matrix(0.137401,0.990516,-0.990516,0.137401,141.046,79.3402)">
        <path d="M5.982,-21.008C5.982,-21.008 24.335,-18.472 22.666,-6.4C21.177,4.376 5.982,3.512 5.982,3.512C5.982,3.512 5.977,-10.996 2.354,-14.791L5.982,-21.008Z" style="fill:rgb(47,73,157);fill-rule:nonzero;"/>
    </g>
    <g transform="matrix(-1,0,0,1,122.931,180.979)">
        <path d="M0,-48.515C-9.981,-44.318 -17.987,-35.496 -21.452,-25.273C-22.887,-23.672 -24.23,-21.838 -24.635,-20.057C-25.928,-14.617 -23.611,-8.766 -18.049,-6.399C-10.744,-3.056 -1.077,-3.431 6.415,-6.289C10.475,-7.765 13.399,-11.056 16.609,-13.784C20.883,-17.533 24.608,-21.586 28.113,-26.001C30.211,-28.528 32.551,-30.95 33.656,-33.788C34.934,-37.563 34.441,-41.466 32.305,-44.968C30.937,-47.349 34.39,-49.538 35.963,-47.293C39.102,-43.054 40.229,-37.064 38.527,-32.002C37.218,-28.268 34.738,-25.483 32.522,-22.641C27.762,-15.832 21.776,-9.953 15.511,-4.596C6.202,3.148 -9.911,4.327 -20.8,-0.767C-31.691,-5.539 -34.669,-20.407 -26.098,-28.688C-26.098,-28.689 -26.68,-27.757 -26.68,-27.757C-23.242,-36.219 -17.175,-43.517 -9.502,-48.414C-6.865,-50.079 -4.336,-51.434 -1.314,-52.475C-0.222,-52.842 0.96,-52.255 1.327,-51.163C1.7,-50.062 1.088,-48.878 0,-48.515" style="fill:rgb(47,73,157);fill-rule:nonzero;"/>
    </g>
    <g transform="matrix(-1,0,0,1,176.996,164.149)">
        <path d="M0,-38.437C9.411,-34.705 18.114,-27.388 20.39,-17.14L19.089,-19.061C30.275,-11.788 27.445,4.89 17.525,11.908C10.394,17.368 0.808,17.276 -7.117,14.017C-22.406,8.722 -29.392,-2.353 -27.599,-18.451C-26.863,-29.387 -19.841,-39.277 -11.837,-46.094C-11.837,-46.095 -12.703,-44.744 -12.703,-44.744L-10.351,-52.006C-9.015,-55.805 -3.377,-54.032 -4.492,-50.134C-4.624,-49.67 -6.983,-42.258 -7.033,-42.069L-7.652,-41.504C-14.863,-35.145 -20.49,-27.483 -21.285,-17.801C-22.758,-4.45 -17.569,3.728 -4.913,8.151C-2.821,8.938 -0.538,9.671 1.676,9.91C10.365,11.307 19.096,5.004 20.081,-3.685C20.716,-8.298 18.57,-12.491 14.651,-14.602C13.887,-19.039 11.694,-23.06 8.453,-26.26C5.535,-29.283 1.689,-31.904 -2.039,-33.738C-4.911,-35.218 -3.036,-39.516 0,-38.437" style="fill:rgb(47,73,157);fill-rule:nonzero;"/>
    </g>
    <g transform="matrix(-1,0,0,1,91.5708,108.245)">
        <path d="M0,128.534C-11.215,128.534 -21.249,127.196 -23.63,126.854C-39.919,129.293 -50.127,128.442 -63.631,126.838C-65.4,127.023 -72.941,127.78 -80.916,128.104C-99.027,128.842 -102.107,126.69 -103.568,124.616C-106.488,120.472 -104.5,115.791 -101.881,112.478C-125.544,90.868 -118.194,64.815 -110.688,53.725C-109.669,52.217 -107.62,51.825 -106.114,52.844C-104.609,53.862 -104.214,55.906 -105.228,57.412C-106.008,58.576 -123.888,86.03 -95.031,109.696L-91.998,112.183L-94.972,114.74C-96.467,116.041 -98.949,119.105 -98.297,120.617C-95.1,122.286 -78.163,121.792 -63.966,120.249L-63.594,120.208L-63.221,120.253C-49.534,121.884 -40.073,122.7 -24.134,120.267L-23.637,120.191L-23.138,120.268C-22.933,120.3 -2.407,123.383 13.634,121.091C22.764,119.788 23.654,117.477 23.661,117.454C23.796,117.057 23.281,116.183 22.865,115.757L21.04,113.879L22.424,111.644C47.365,72.886 16.081,41.285 14.738,39.959L13.947,39.179L13.787,38.077C10.31,13.706 3.193,5.147 3.121,5.063C1.946,3.69 2.089,1.615 3.451,0.428C4.814,-0.759 6.871,-0.638 8.069,0.714C8.407,1.096 16.293,10.237 20.157,36.107C25.296,41.72 52.577,74.469 29.16,113.289C30.023,114.825 30.732,117.022 29.926,119.493C28.56,123.677 23.534,126.333 14.564,127.613C9.832,128.288 4.808,128.534 0,128.534" style="fill:rgb(47,73,157);fill-rule:nonzero;"/>
    </g>
    <g transform="matrix(-1,0,0,1,191.57,232.96)">
        <path d="M0,-53.54C6.268,-34.264 19.292,-17.73 35.237,-5.478C36.704,-3.996 40.627,-2.459 38.798,0.068C38.16,0.831 37.08,1.007 36.243,0.537C33.777,-0.843 31.262,-2.206 28.94,-3.849C17.224,-11.941 8.05,-23.707 2.652,-36.858C0.516,-42.123 -1.107,-47.563 -1.647,-53.271C-1.735,-54.272 -0.242,-54.547 0,-53.54" style="fill:rgb(47,73,157);fill-rule:nonzero;"/>
    </g>
    <g transform="matrix(-1,0,0,1,164.852,216.396)">
        <path d="M0,9.69C-0.206,9.69 -0.417,9.658 -0.625,9.591C-17.044,4.302 -23.158,6.016 -23.221,6.034C-24.285,6.349 -25.426,5.765 -25.763,4.706C-26.101,3.646 -25.545,2.518 -24.492,2.161C-23.787,1.923 -17.097,0 0.625,5.712C1.696,6.057 2.285,7.206 1.94,8.277C1.662,9.14 0.861,9.69 0,9.69" style="fill:rgb(47,73,157);fill-rule:nonzero;"/>
    </g>
    <g transform="matrix(-1,0,0,1,113.904,208.057)">
        <path d="M0,24.186C-0.525,24.186 -1.049,23.985 -1.448,23.582C-2.24,22.782 -2.233,21.492 -1.433,20.7C19.469,0 48.026,11.615 48.313,11.735C49.351,12.169 49.839,13.362 49.406,14.399C48.971,15.437 47.784,15.927 46.741,15.495C46.483,15.387 20.379,4.837 1.433,23.597C1.036,23.99 0.518,24.186 0,24.186" style="fill:rgb(47,73,157);fill-rule:nonzero;"/>
    </g>
    <g transform="matrix(0,-1,1,0,151.22,89.7793)">
        <path d="M-4.801,-5.581C-6.467,-5.581 -7.817,-3.257 -7.817,-0.39C-7.817,2.477 -6.467,4.801 -4.801,4.801C-3.135,4.801 -2.565,2.477 -2.565,-0.39C-2.565,-3.257 -3.135,-5.581 -4.801,-5.581" style="fill:rgb(243,146,140);fill-rule:nonzero;"/>
    </g>
    <g transform="matrix(-1,0,0,1,156.021,70.6275)">
        <path d="M0,12.699C-0.789,12.699 -1.537,12.226 -1.85,11.448C-3.803,6.593 -2.667,1.915 -2.617,1.719C-2.349,0.65 -1.268,0 -0.197,0.269C0.869,0.537 1.516,1.616 1.253,2.682C1.236,2.752 0.401,6.357 1.85,9.96C2.262,10.982 1.766,12.143 0.744,12.554C0.5,12.652 0.248,12.699 0,12.699" style="fill:rgb(47,73,157);fill-rule:nonzero;"/>
    </g>
    <g transform="matrix(-1,0,0,1,23.9944,173.162)">
        <path d="M0,23.153C6.164,13.887 12.384,19.106 16.299,20.865C16.852,21.113 17.39,21.388 17.925,21.668C20.446,16.339 23.363,8.998 20.7,5.571C15.529,-1.085 5.852,-1.249 3.566,4.616C2.177,8.179 0.48,15.05 -0.638,19.898C0.493,19.058 -0.831,24.402 0,23.153" style="fill:rgb(47,73,157);fill-rule:nonzero;"/>
    </g>
</svg>
